<?xml version="1.0" encoding="utf-8" standalone="no"?>
<!DOCTYPE svg PUBLIC "-//W3C//DTD SVG 1.1//EN"
  "http://www.w3.org/Graphics/SVG/1.1/DTD/svg11.dtd">
<svg xmlns:xlink="http://www.w3.org/1999/xlink" width="460.8pt" height="345.6pt" viewBox="0 0 460.8 345.6" xmlns="http://www.w3.org/2000/svg" version="1.1">
 <metadata>
  <rdf:RDF xmlns:dc="http://purl.org/dc/elements/1.1/" xmlns:cc="http://creativecommons.org/ns#" xmlns:rdf="http://www.w3.org/1999/02/22-rdf-syntax-ns#">
   <cc:Work>
    <dc:type rdf:resource="http://purl.org/dc/dcmitype/StillImage"/>
    <dc:date>2023-06-19T01:18:05.389294</dc:date>
    <dc:format>image/svg+xml</dc:format>
    <dc:creator>
     <cc:Agent>
      <dc:title>Matplotlib v3.7.1, https://matplotlib.org/</dc:title>
     </cc:Agent>
    </dc:creator>
   </cc:Work>
  </rdf:RDF>
 </metadata>
 <defs>
  <style type="text/css">*{stroke-linejoin: round; stroke-linecap: butt}</style>
 </defs>
 <g id="figure_1">
  <g id="patch_1">
   <path d="M 0 345.6 
L 460.8 345.6 
L 460.8 0 
L 0 0 
z
" style="fill: #ffffff"/>
  </g>
  <g id="axes_1">
   <g id="patch_2">
    <path d="M 360.576 176.256 
C 360.576 159.917841 357.357739 143.738549 351.105396 128.644058 
C 344.853053 113.549567 335.688221 99.833426 324.135397 88.280603 
C 312.582574 76.727779 298.866433 67.562947 283.771942 61.310604 
C 268.677451 55.058261 252.498159 51.84 236.16 51.84 
C 219.821841 51.84 203.642549 55.058261 188.548058 61.310604 
C 173.453567 67.562947 159.737426 76.727779 148.184603 88.280603 
C 136.631779 99.833426 127.466947 113.549567 121.214604 128.644058 
C 114.962261 143.738549 111.744 159.917841 111.744 176.256 
C 111.744 192.594159 114.962261 208.773451 121.214604 223.867942 
C 127.466947 238.962433 136.631779 252.678574 148.184603 264.231397 
C 159.737426 275.784221 173.453567 284.949053 188.548058 291.201396 
C 203.642549 297.453739 219.821841 300.672 236.16 300.672 
C 252.498159 300.672 268.677451 297.453739 283.771942 291.201396 
C 298.866433 284.949053 312.582574 275.784221 324.135397 264.231397 
C 335.688221 252.678574 344.853053 238.962433 351.105396 223.867942 
C 357.357739 208.773451 360.576 192.594159 360.576 176.256 
M 236.16 176.256 
C 236.16 176.256 236.16 176.256 236.16 176.256 
C 236.16 176.256 236.16 176.256 236.16 176.256 
C 236.16 176.256 236.16 176.256 236.16 176.256 
C 236.16 176.256 236.16 176.256 236.16 176.256 
C 236.16 176.256 236.16 176.256 236.16 176.256 
C 236.16 176.256 236.16 176.256 236.16 176.256 
C 236.16 176.256 236.16 176.256 236.16 176.256 
C 236.16 176.256 236.16 176.256 236.16 176.256 
C 236.16 176.256 236.16 176.256 236.16 176.256 
C 236.16 176.256 236.16 176.256 236.16 176.256 
C 236.16 176.256 236.16 176.256 236.16 176.256 
C 236.16 176.256 236.16 176.256 236.16 176.256 
C 236.16 176.256 236.16 176.256 236.16 176.256 
C 236.16 176.256 236.16 176.256 236.16 176.256 
C 236.16 176.256 236.16 176.256 236.16 176.256 
C 236.16 176.256 236.16 176.256 236.16 176.256 
z
" style="fill: #ffffff"/>
   </g>
   <g id="patch_3">
    <path d="M 236.16 124.723229 
L 191.300504 150.356358 
L 188.41864 203.819487 
L 236.16 227.922028 
L 277.545276 200.1498 
L 268.42591 157.627268 
L 236.16 124.723229 
z
" clip-path="url(#pb874f50569)" style="fill: #0000ff; opacity: 0.05"/>
   </g>
   <g id="patch_4">
    <path d="M 236.16 111.237358 
L 177.608156 142.451077 
L 146.917702 227.780065 
L 236.16 242.570244 
L 301.178807 213.794625 
L 279.243894 151.381502 
L 236.16 111.237358 
z
" clip-path="url(#pb874f50569)" style="fill: #ff0000; opacity: 0.05"/>
   </g>
   <g id="patch_5">
    <path d="M 236.16 128.616279 
L 194.967275 152.473369 
L 191.64703 201.955575 
L 236.16 223.858491 
L 273.982172 198.092641 
L 264.059596 160.148161 
L 236.16 128.616279 
z
" clip-path="url(#pb874f50569)" style="fill: #008000; opacity: 0.05"/>
   </g>
   <g id="patch_6">
    <path d="M 236.16 84.008959 
L 159.23411 131.842817 
L 190.752699 202.471917 
L 236.16 266.792704 
L 292.01252 208.502467 
L 312.544293 132.155508 
L 236.16 84.008959 
z
" clip-path="url(#pb874f50569)" style="fill: #bf00bf; opacity: 0.05"/>
   </g>
   <g id="patch_7">
    <path d="M 236.16 81.346118 
L 156.225672 130.105894 
L 204.324455 194.63626 
L 236.16 269.861047 
L 278.034777 200.432414 
L 316.53963 129.848799 
L 236.16 81.346118 
z
" clip-path="url(#pb874f50569)" style="fill: #bfbf00; opacity: 0.05"/>
   </g>
   <g id="matplotlib.axis_1">
    <g id="xtick_1">
     <g id="line2d_1">
      <path d="M 236.16 176.256 
L 236.16 51.84 
" clip-path="url(#pb874f50569)" style="fill: none; stroke: #b0b0b0; stroke-width: 0.8; stroke-linecap: square"/>
     </g>
    </g>
    <g id="xtick_2">
     <g id="line2d_2">
      <path d="M 236.16 176.256 
L 128.412583 114.048 
" clip-path="url(#pb874f50569)" style="fill: none; stroke: #b0b0b0; stroke-width: 0.8; stroke-linecap: square"/>
     </g>
    </g>
    <g id="xtick_3">
     <g id="line2d_3">
      <path d="M 236.16 176.256 
L 128.412583 238.464 
" clip-path="url(#pb874f50569)" style="fill: none; stroke: #b0b0b0; stroke-width: 0.8; stroke-linecap: square"/>
     </g>
    </g>
    <g id="xtick_4">
     <g id="line2d_4">
      <path d="M 236.16 176.256 
L 236.16 300.672 
" clip-path="url(#pb874f50569)" style="fill: none; stroke: #b0b0b0; stroke-width: 0.8; stroke-linecap: square"/>
     </g>
    </g>
    <g id="xtick_5">
     <g id="line2d_5">
      <path d="M 236.16 176.256 
L 343.907417 238.464 
" clip-path="url(#pb874f50569)" style="fill: none; stroke: #b0b0b0; stroke-width: 0.8; stroke-linecap: square"/>
     </g>
    </g>
    <g id="xtick_6">
     <g id="line2d_6">
      <path d="M 236.16 176.256 
L 343.907417 114.048 
" clip-path="url(#pb874f50569)" style="fill: none; stroke: #b0b0b0; stroke-width: 0.8; stroke-linecap: square"/>
     </g>
    </g>
    <g id="xtick_7">
     <g id="line2d_7">
      <path d="M 236.16 176.256 
L 236.16 51.84 
" clip-path="url(#pb874f50569)" style="fill: none; stroke: #b0b0b0; stroke-width: 0.8; stroke-linecap: square"/>
     </g>
    </g>
   </g>
   <g id="matplotlib.axis_2">
    <g id="ytick_1">
     <g id="line2d_8">
      <path d="M 236.16 176.256 
C 236.16 176.256 236.16 176.256 236.16 176.256 
C 236.16 176.256 236.16 176.256 236.16 176.256 
C 236.16 176.256 236.16 176.256 236.16 176.256 
C 236.16 176.256 236.16 176.256 236.16 176.256 
C 236.16 176.256 236.16 176.256 236.16 176.256 
C 236.16 176.256 236.16 176.256 236.16 176.256 
C 236.16 176.256 236.16 176.256 236.16 176.256 
C 236.16 176.256 236.16 176.256 236.16 176.256 
C 236.16 176.256 236.16 176.256 236.16 176.256 
C 236.16 176.256 236.16 176.256 236.16 176.256 
C 236.16 176.256 236.16 176.256 236.16 176.256 
C 236.16 176.256 236.16 176.256 236.16 176.256 
C 236.16 176.256 236.16 176.256 236.16 176.256 
C 236.16 176.256 236.16 176.256 236.16 176.256 
C 236.16 176.256 236.16 176.256 236.16 176.256 
C 236.16 176.256 236.16 176.256 236.16 176.256 
" clip-path="url(#pb874f50569)" style="fill: none; stroke: #b0b0b0; stroke-width: 0.8; stroke-linecap: square"/>
     </g>
     <g id="text_1">
      <!-- 0.700 -->
      <g transform="translate(235.638295 174.896911) rotate(-21) scale(0.07 -0.07)">
       <defs>
        <path id="DejaVuSans-30" d="M 2034 4250 
Q 1547 4250 1301 3770 
Q 1056 3291 1056 2328 
Q 1056 1369 1301 889 
Q 1547 409 2034 409 
Q 2525 409 2770 889 
Q 3016 1369 3016 2328 
Q 3016 3291 2770 3770 
Q 2525 4250 2034 4250 
z
M 2034 4750 
Q 2819 4750 3233 4129 
Q 3647 3509 3647 2328 
Q 3647 1150 3233 529 
Q 2819 -91 2034 -91 
Q 1250 -91 836 529 
Q 422 1150 422 2328 
Q 422 3509 836 4129 
Q 1250 4750 2034 4750 
z
" transform="scale(0.015625)"/>
        <path id="DejaVuSans-2e" d="M 684 794 
L 1344 794 
L 1344 0 
L 684 0 
L 684 794 
z
" transform="scale(0.015625)"/>
        <path id="DejaVuSans-37" d="M 525 4666 
L 3525 4666 
L 3525 4397 
L 1831 0 
L 1172 0 
L 2766 4134 
L 525 4134 
L 525 4666 
z
" transform="scale(0.015625)"/>
       </defs>
       <use xlink:href="#DejaVuSans-30"/>
       <use xlink:href="#DejaVuSans-2e" x="63.623047"/>
       <use xlink:href="#DejaVuSans-37" x="95.410156"/>
       <use xlink:href="#DejaVuSans-30" x="159.033203"/>
       <use xlink:href="#DejaVuSans-30" x="222.65625"/>
      </g>
     </g>
    </g>
    <g id="ytick_2">
     <g id="line2d_9">
      <path d="M 236.16 160.704 
C 234.11773 160.704 232.095319 161.106283 230.208507 161.887826 
C 228.321696 162.669368 226.607178 163.814972 225.163075 165.259075 
C 223.718972 166.703178 222.573368 168.417696 221.791826 170.304507 
C 221.010283 172.191319 220.608 174.21373 220.608 176.256 
C 220.608 178.29827 221.010283 180.320681 221.791826 182.207493 
C 222.573368 184.094304 223.718972 185.808822 225.163075 187.252925 
C 226.607178 188.697028 228.321696 189.842632 230.208507 190.624174 
C 232.095319 191.405717 234.11773 191.808 236.16 191.808 
C 238.20227 191.808 240.224681 191.405717 242.111493 190.624174 
C 243.998304 189.842632 245.712822 188.697028 247.156925 187.252925 
C 248.601028 185.808822 249.746632 184.094304 250.528174 182.207493 
C 251.309717 180.320681 251.712 178.29827 251.712 176.256 
C 251.712 174.21373 251.309717 172.191319 250.528174 170.304507 
C 249.746632 168.417696 248.601028 166.703178 247.156925 165.259075 
C 245.712822 163.814972 243.998304 162.669368 242.111493 161.887826 
C 240.224681 161.106283 238.20227 160.704 236.16 160.704 
" clip-path="url(#pb874f50569)" style="fill: none; stroke: #b0b0b0; stroke-width: 0.8; stroke-linecap: square"/>
     </g>
     <g id="text_2">
      <!-- 0.725 -->
      <g transform="translate(229.686802 160.528737) rotate(-21) scale(0.07 -0.07)">
       <defs>
        <path id="DejaVuSans-32" d="M 1228 531 
L 3431 531 
L 3431 0 
L 469 0 
L 469 531 
Q 828 903 1448 1529 
Q 2069 2156 2228 2338 
Q 2531 2678 2651 2914 
Q 2772 3150 2772 3378 
Q 2772 3750 2511 3984 
Q 2250 4219 1831 4219 
Q 1534 4219 1204 4116 
Q 875 4013 500 3803 
L 500 4441 
Q 881 4594 1212 4672 
Q 1544 4750 1819 4750 
Q 2544 4750 2975 4387 
Q 3406 4025 3406 3419 
Q 3406 3131 3298 2873 
Q 3191 2616 2906 2266 
Q 2828 2175 2409 1742 
Q 1991 1309 1228 531 
z
" transform="scale(0.015625)"/>
        <path id="DejaVuSans-35" d="M 691 4666 
L 3169 4666 
L 3169 4134 
L 1269 4134 
L 1269 2991 
Q 1406 3038 1543 3061 
Q 1681 3084 1819 3084 
Q 2600 3084 3056 2656 
Q 3513 2228 3513 1497 
Q 3513 744 3044 326 
Q 2575 -91 1722 -91 
Q 1428 -91 1123 -41 
Q 819 9 494 109 
L 494 744 
Q 775 591 1075 516 
Q 1375 441 1709 441 
Q 2250 441 2565 725 
Q 2881 1009 2881 1497 
Q 2881 1984 2565 2268 
Q 2250 2553 1709 2553 
Q 1456 2553 1204 2497 
Q 953 2441 691 2322 
L 691 4666 
z
" transform="scale(0.015625)"/>
       </defs>
       <use xlink:href="#DejaVuSans-30"/>
       <use xlink:href="#DejaVuSans-2e" x="63.623047"/>
       <use xlink:href="#DejaVuSans-37" x="95.410156"/>
       <use xlink:href="#DejaVuSans-32" x="159.033203"/>
       <use xlink:href="#DejaVuSans-35" x="222.65625"/>
      </g>
     </g>
    </g>
    <g id="ytick_3">
     <g id="line2d_10">
      <path d="M 236.16 145.152 
C 232.07546 145.152 228.030637 145.956565 224.257015 147.519651 
C 220.483392 149.082737 217.054357 151.373945 214.166151 154.262151 
C 211.277945 157.150357 208.986737 160.579392 207.423651 164.353015 
C 205.860565 168.126637 205.056 172.17146 205.056 176.256 
C 205.056 180.34054 205.860565 184.385363 207.423651 188.158985 
C 208.986737 191.932608 211.277945 195.361643 214.166151 198.249849 
C 217.054357 201.138055 220.483392 203.429263 224.257015 204.992349 
C 228.030637 206.555435 232.07546 207.36 236.16 207.36 
C 240.24454 207.36 244.289363 206.555435 248.062985 204.992349 
C 251.836608 203.429263 255.265643 201.138055 258.153849 198.249849 
C 261.042055 195.361643 263.333263 191.932608 264.896349 188.158985 
C 266.459435 184.385363 267.264 180.34054 267.264 176.256 
C 267.264 172.17146 266.459435 168.126637 264.896349 164.353015 
C 263.333263 160.579392 261.042055 157.150357 258.153849 154.262151 
C 255.265643 151.373945 251.836608 149.082737 248.062985 147.519651 
C 244.289363 145.956565 240.24454 145.152 236.16 145.152 
" clip-path="url(#pb874f50569)" style="fill: none; stroke: #b0b0b0; stroke-width: 0.8; stroke-linecap: square"/>
     </g>
     <g id="text_3">
      <!-- 0.750 -->
      <g transform="translate(223.735309 146.160562) rotate(-21) scale(0.07 -0.07)">
       <use xlink:href="#DejaVuSans-30"/>
       <use xlink:href="#DejaVuSans-2e" x="63.623047"/>
       <use xlink:href="#DejaVuSans-37" x="95.410156"/>
       <use xlink:href="#DejaVuSans-35" x="159.033203"/>
       <use xlink:href="#DejaVuSans-30" x="222.65625"/>
      </g>
     </g>
    </g>
    <g id="ytick_4">
     <g id="line2d_11">
      <path d="M 236.16 129.6 
C 230.03319 129.6 223.965956 130.806848 218.305522 133.151477 
C 212.645088 135.496105 207.501535 138.932917 203.169226 143.265226 
C 198.836917 147.597535 195.400105 152.741088 193.055477 158.401522 
C 190.710848 164.061956 189.504 170.12919 189.504 176.256 
C 189.504 182.38281 190.710848 188.450044 193.055477 194.110478 
C 195.400105 199.770912 198.836917 204.914465 203.169226 209.246774 
C 207.501535 213.579083 212.645088 217.015895 218.305522 219.360523 
C 223.965956 221.705152 230.03319 222.912 236.16 222.912 
C 242.28681 222.912 248.354044 221.705152 254.014478 219.360523 
C 259.674912 217.015895 264.818465 213.579083 269.150774 209.246774 
C 273.483083 204.914465 276.919895 199.770912 279.264523 194.110478 
C 281.609152 188.450044 282.816 182.38281 282.816 176.256 
C 282.816 170.12919 281.609152 164.061956 279.264523 158.401522 
C 276.919895 152.741088 273.483083 147.597535 269.150774 143.265226 
C 264.818465 138.932917 259.674912 135.496105 254.014478 133.151477 
C 248.354044 130.806848 242.28681 129.6 236.16 129.6 
" clip-path="url(#pb874f50569)" style="fill: none; stroke: #b0b0b0; stroke-width: 0.8; stroke-linecap: square"/>
     </g>
     <g id="text_4">
      <!-- 0.775 -->
      <g transform="translate(217.783816 131.792388) rotate(-21) scale(0.07 -0.07)">
       <use xlink:href="#DejaVuSans-30"/>
       <use xlink:href="#DejaVuSans-2e" x="63.623047"/>
       <use xlink:href="#DejaVuSans-37" x="95.410156"/>
       <use xlink:href="#DejaVuSans-37" x="159.033203"/>
       <use xlink:href="#DejaVuSans-35" x="222.65625"/>
      </g>
     </g>
    </g>
    <g id="ytick_5">
     <g id="line2d_12">
      <path d="M 236.16 114.048 
C 227.99092 114.048 219.901275 115.657131 212.354029 118.783302 
C 204.806783 121.909474 197.948713 126.49189 192.172301 132.268301 
C 186.39589 138.044713 181.813474 144.902783 178.687302 152.450029 
C 175.561131 159.997275 173.952 168.08692 173.952 176.256 
C 173.952 184.42508 175.561131 192.514725 178.687302 200.061971 
C 181.813474 207.609217 186.39589 214.467287 192.172301 220.243699 
C 197.948713 226.02011 204.806783 230.602526 212.354029 233.728698 
C 219.901275 236.854869 227.99092 238.464 236.16 238.464 
C 244.32908 238.464 252.418725 236.854869 259.965971 233.728698 
C 267.513217 230.602526 274.371287 226.02011 280.147699 220.243699 
C 285.92411 214.467287 290.506526 207.609217 293.632698 200.061971 
C 296.758869 192.514725 298.368 184.42508 298.368 176.256 
C 298.368 168.08692 296.758869 159.997275 293.632698 152.450029 
C 290.506526 144.902783 285.92411 138.044713 280.147699 132.268301 
C 274.371287 126.49189 267.513217 121.909474 259.965971 118.783302 
C 252.418725 115.657131 244.32908 114.048 236.16 114.048 
" clip-path="url(#pb874f50569)" style="fill: none; stroke: #b0b0b0; stroke-width: 0.8; stroke-linecap: square"/>
     </g>
     <g id="text_5">
      <!-- 0.800 -->
      <g transform="translate(211.832324 117.424213) rotate(-21) scale(0.07 -0.07)">
       <defs>
        <path id="DejaVuSans-38" d="M 2034 2216 
Q 1584 2216 1326 1975 
Q 1069 1734 1069 1313 
Q 1069 891 1326 650 
Q 1584 409 2034 409 
Q 2484 409 2743 651 
Q 3003 894 3003 1313 
Q 3003 1734 2745 1975 
Q 2488 2216 2034 2216 
z
M 1403 2484 
Q 997 2584 770 2862 
Q 544 3141 544 3541 
Q 544 4100 942 4425 
Q 1341 4750 2034 4750 
Q 2731 4750 3128 4425 
Q 3525 4100 3525 3541 
Q 3525 3141 3298 2862 
Q 3072 2584 2669 2484 
Q 3125 2378 3379 2068 
Q 3634 1759 3634 1313 
Q 3634 634 3220 271 
Q 2806 -91 2034 -91 
Q 1263 -91 848 271 
Q 434 634 434 1313 
Q 434 1759 690 2068 
Q 947 2378 1403 2484 
z
M 1172 3481 
Q 1172 3119 1398 2916 
Q 1625 2713 2034 2713 
Q 2441 2713 2670 2916 
Q 2900 3119 2900 3481 
Q 2900 3844 2670 4047 
Q 2441 4250 2034 4250 
Q 1625 4250 1398 4047 
Q 1172 3844 1172 3481 
z
" transform="scale(0.015625)"/>
       </defs>
       <use xlink:href="#DejaVuSans-30"/>
       <use xlink:href="#DejaVuSans-2e" x="63.623047"/>
       <use xlink:href="#DejaVuSans-38" x="95.410156"/>
       <use xlink:href="#DejaVuSans-30" x="159.033203"/>
       <use xlink:href="#DejaVuSans-30" x="222.65625"/>
      </g>
     </g>
    </g>
    <g id="ytick_6">
     <g id="line2d_13">
      <path d="M 236.16 98.496 
C 225.94865 98.496 215.836593 100.507413 206.402536 104.415128 
C 196.968479 108.322842 188.395891 114.050862 181.175377 121.271377 
C 173.954862 128.491891 168.226842 137.064479 164.319128 146.498536 
C 160.411413 155.932593 158.4 166.04465 158.4 176.256 
C 158.4 186.46735 160.411413 196.579407 164.319128 206.013464 
C 168.226842 215.447521 173.954862 224.020109 181.175377 231.240623 
C 188.395891 238.461138 196.968479 244.189158 206.402536 248.096872 
C 215.836593 252.004587 225.94865 254.016 236.16 254.016 
C 246.37135 254.016 256.483407 252.004587 265.917464 248.096872 
C 275.351521 244.189158 283.924109 238.461138 291.144623 231.240623 
C 298.365138 224.020109 304.093158 215.447521 308.000872 206.013464 
C 311.908587 196.579407 313.92 186.46735 313.92 176.256 
C 313.92 166.04465 311.908587 155.932593 308.000872 146.498536 
C 304.093158 137.064479 298.365138 128.491891 291.144623 121.271377 
C 283.924109 114.050862 275.351521 108.322842 265.917464 104.415128 
C 256.483407 100.507413 246.37135 98.496 236.16 98.496 
" clip-path="url(#pb874f50569)" style="fill: none; stroke: #b0b0b0; stroke-width: 0.8; stroke-linecap: square"/>
     </g>
     <g id="text_6">
      <!-- 0.825 -->
      <g transform="translate(205.880831 103.056039) rotate(-21) scale(0.07 -0.07)">
       <use xlink:href="#DejaVuSans-30"/>
       <use xlink:href="#DejaVuSans-2e" x="63.623047"/>
       <use xlink:href="#DejaVuSans-38" x="95.410156"/>
       <use xlink:href="#DejaVuSans-32" x="159.033203"/>
       <use xlink:href="#DejaVuSans-35" x="222.65625"/>
      </g>
     </g>
    </g>
    <g id="ytick_7">
     <g id="line2d_14">
      <path d="M 236.16 82.944 
C 223.90638 82.944 211.771912 85.357696 200.451044 90.046953 
C 189.130175 94.73621 178.84307 101.609835 170.178452 110.274452 
C 161.513835 118.93907 154.64021 129.226175 149.950953 140.547044 
C 145.261696 151.867912 142.848 164.00238 142.848 176.256 
C 142.848 188.50962 145.261696 200.644088 149.950953 211.964956 
C 154.64021 223.285825 161.513835 233.57293 170.178452 242.237548 
C 178.84307 250.902165 189.130175 257.77579 200.451044 262.465047 
C 211.771912 267.154304 223.90638 269.568 236.16 269.568 
C 248.41362 269.568 260.548088 267.154304 271.868956 262.465047 
C 283.189825 257.77579 293.47693 250.902165 302.141548 242.237548 
C 310.806165 233.57293 317.67979 223.285825 322.369047 211.964956 
C 327.058304 200.644088 329.472 188.50962 329.472 176.256 
C 329.472 164.00238 327.058304 151.867912 322.369047 140.547044 
C 317.67979 129.226175 310.806165 118.93907 302.141548 110.274452 
C 293.47693 101.609835 283.189825 94.73621 271.868956 90.046953 
C 260.548088 85.357696 248.41362 82.944 236.16 82.944 
" clip-path="url(#pb874f50569)" style="fill: none; stroke: #b0b0b0; stroke-width: 0.8; stroke-linecap: square"/>
     </g>
     <g id="text_7">
      <!-- 0.850 -->
      <g transform="translate(199.929338 88.687864) rotate(-21) scale(0.07 -0.07)">
       <use xlink:href="#DejaVuSans-30"/>
       <use xlink:href="#DejaVuSans-2e" x="63.623047"/>
       <use xlink:href="#DejaVuSans-38" x="95.410156"/>
       <use xlink:href="#DejaVuSans-35" x="159.033203"/>
       <use xlink:href="#DejaVuSans-30" x="222.65625"/>
      </g>
     </g>
    </g>
    <g id="ytick_8">
     <g id="line2d_15">
      <path d="M 236.16 67.392 
C 221.864111 67.392 207.707231 70.207979 194.499551 75.678779 
C 181.291871 81.149579 169.290248 89.168807 159.181527 99.277527 
C 149.072807 109.386248 141.053579 121.387871 135.582779 134.595551 
C 130.111979 147.803231 127.296 161.960111 127.296 176.256 
C 127.296 190.551889 130.111979 204.708769 135.582779 217.916449 
C 141.053579 231.124129 149.072807 243.125752 159.181527 253.234473 
C 169.290248 263.343193 181.291871 271.362421 194.499551 276.833221 
C 207.707231 282.304021 221.864111 285.12 236.16 285.12 
C 250.455889 285.12 264.612769 282.304021 277.820449 276.833221 
C 291.028129 271.362421 303.029752 263.343193 313.138473 253.234473 
C 323.247193 243.125752 331.266421 231.124129 336.737221 217.916449 
C 342.208021 204.708769 345.024 190.551889 345.024 176.256 
C 345.024 161.960111 342.208021 147.803231 336.737221 134.595551 
C 331.266421 121.387871 323.247193 109.386248 313.138473 99.277527 
C 303.029752 89.168807 291.028129 81.149579 277.820449 75.678779 
C 264.612769 70.207979 250.455889 67.392 236.16 67.392 
" clip-path="url(#pb874f50569)" style="fill: none; stroke: #b0b0b0; stroke-width: 0.8; stroke-linecap: square"/>
     </g>
     <g id="text_8">
      <!-- 0.875 -->
      <g transform="translate(193.977845 74.31969) rotate(-21) scale(0.07 -0.07)">
       <use xlink:href="#DejaVuSans-30"/>
       <use xlink:href="#DejaVuSans-2e" x="63.623047"/>
       <use xlink:href="#DejaVuSans-38" x="95.410156"/>
       <use xlink:href="#DejaVuSans-37" x="159.033203"/>
       <use xlink:href="#DejaVuSans-35" x="222.65625"/>
      </g>
     </g>
    </g>
    <g id="ytick_9">
     <g id="line2d_16">
      <path d="M 236.16 51.84 
C 219.821841 51.84 203.642549 55.058261 188.548058 61.310604 
C 173.453567 67.562947 159.737426 76.727779 148.184603 88.280603 
C 136.631779 99.833426 127.466947 113.549567 121.214604 128.644058 
C 114.962261 143.738549 111.744 159.917841 111.744 176.256 
C 111.744 192.594159 114.962261 208.773451 121.214604 223.867942 
C 127.466947 238.962433 136.631779 252.678574 148.184603 264.231397 
C 159.737426 275.784221 173.453567 284.949053 188.548058 291.201396 
C 203.642549 297.453739 219.821841 300.672 236.16 300.672 
C 252.498159 300.672 268.677451 297.453739 283.771942 291.201396 
C 298.866433 284.949053 312.582574 275.784221 324.135397 264.231397 
C 335.688221 252.678574 344.853053 238.962433 351.105396 223.867942 
C 357.357739 208.773451 360.576 192.594159 360.576 176.256 
C 360.576 159.917841 357.357739 143.738549 351.105396 128.644058 
C 344.853053 113.549567 335.688221 99.833426 324.135397 88.280603 
C 312.582574 76.727779 298.866433 67.562947 283.771942 61.310604 
C 268.677451 55.058261 252.498159 51.84 236.16 51.84 
" clip-path="url(#pb874f50569)" style="fill: none; stroke: #b0b0b0; stroke-width: 0.8; stroke-linecap: square"/>
     </g>
     <g id="text_9">
      <!-- 0.900 -->
      <g transform="translate(188.026353 59.951515) rotate(-21) scale(0.07 -0.07)">
       <defs>
        <path id="DejaVuSans-39" d="M 703 97 
L 703 672 
Q 941 559 1184 500 
Q 1428 441 1663 441 
Q 2288 441 2617 861 
Q 2947 1281 2994 2138 
Q 2813 1869 2534 1725 
Q 2256 1581 1919 1581 
Q 1219 1581 811 2004 
Q 403 2428 403 3163 
Q 403 3881 828 4315 
Q 1253 4750 1959 4750 
Q 2769 4750 3195 4129 
Q 3622 3509 3622 2328 
Q 3622 1225 3098 567 
Q 2575 -91 1691 -91 
Q 1453 -91 1209 -44 
Q 966 3 703 97 
z
M 1959 2075 
Q 2384 2075 2632 2365 
Q 2881 2656 2881 3163 
Q 2881 3666 2632 3958 
Q 2384 4250 1959 4250 
Q 1534 4250 1286 3958 
Q 1038 3666 1038 3163 
Q 1038 2656 1286 2365 
Q 1534 2075 1959 2075 
z
" transform="scale(0.015625)"/>
       </defs>
       <use xlink:href="#DejaVuSans-30"/>
       <use xlink:href="#DejaVuSans-2e" x="63.623047"/>
       <use xlink:href="#DejaVuSans-39" x="95.410156"/>
       <use xlink:href="#DejaVuSans-30" x="159.033203"/>
       <use xlink:href="#DejaVuSans-30" x="222.65625"/>
      </g>
     </g>
    </g>
   </g>
   <g id="line2d_17">
    <path d="M 236.16 124.723229 
L 191.300504 150.356358 
L 188.41864 203.819487 
L 236.16 227.922028 
L 277.545276 200.1498 
L 268.42591 157.627268 
L 236.16 124.723229 
" clip-path="url(#pb874f50569)" style="fill: none; stroke: #0000ff; stroke-width: 1.5; stroke-linecap: square"/>
   </g>
   <g id="line2d_18">
    <path d="M 236.16 111.237358 
L 177.608156 142.451077 
L 146.917702 227.780065 
L 236.16 242.570244 
L 301.178807 213.794625 
L 279.243894 151.381502 
L 236.16 111.237358 
" clip-path="url(#pb874f50569)" style="fill: none; stroke: #ff0000; stroke-width: 1.5; stroke-linecap: square"/>
   </g>
   <g id="line2d_19">
    <path d="M 236.16 128.616279 
L 194.967275 152.473369 
L 191.64703 201.955575 
L 236.16 223.858491 
L 273.982172 198.092641 
L 264.059596 160.148161 
L 236.16 128.616279 
" clip-path="url(#pb874f50569)" style="fill: none; stroke: #008000; stroke-width: 1.5; stroke-linecap: square"/>
   </g>
   <g id="line2d_20">
    <path d="M 236.16 84.008959 
L 159.23411 131.842817 
L 190.752699 202.471917 
L 236.16 266.792704 
L 292.01252 208.502467 
L 312.544293 132.155508 
L 236.16 84.008959 
" clip-path="url(#pb874f50569)" style="fill: none; stroke: #bf00bf; stroke-width: 1.5; stroke-linecap: square"/>
   </g>
   <g id="line2d_21">
    <path d="M 236.16 81.346118 
L 156.225672 130.105894 
L 204.324455 194.63626 
L 236.16 269.861047 
L 278.034777 200.432414 
L 316.53963 129.848799 
L 236.16 81.346118 
" clip-path="url(#pb874f50569)" style="fill: none; stroke: #bfbf00; stroke-width: 1.5; stroke-linecap: square"/>
   </g>
   <g id="patch_8">
    <path d="M 236.16 51.84 
C 219.821841 51.84 203.642549 55.058261 188.548058 61.310604 
C 173.453567 67.562947 159.737426 76.727779 148.184603 88.280603 
C 136.631779 99.833426 127.466947 113.549567 121.214604 128.644058 
C 114.962261 143.738549 111.744 159.917841 111.744 176.256 
C 111.744 192.594159 114.962261 208.773451 121.214604 223.867942 
C 127.466947 238.962433 136.631779 252.678574 148.184603 264.231397 
C 159.737426 275.784221 173.453567 284.949053 188.548058 291.201396 
C 203.642549 297.453739 219.821841 300.672 236.16 300.672 
C 252.498159 300.672 268.677451 297.453739 283.771942 291.201396 
C 298.866433 284.949053 312.582574 275.784221 324.135397 264.231397 
C 335.688221 252.678574 344.853053 238.962433 351.105396 223.867942 
C 357.357739 208.773451 360.576 192.594159 360.576 176.256 
C 360.576 159.917841 357.357739 143.738549 351.105396 128.644058 
C 344.853053 113.549567 335.688221 99.833426 324.135397 88.280603 
C 312.582574 76.727779 298.866433 67.562947 283.771942 61.310604 
C 268.677451 55.058261 252.498159 51.84 236.16 51.84 
" style="fill: none; stroke: #000000; stroke-width: 0.8; stroke-linejoin: miter; stroke-linecap: square"/>
   </g>
   <g id="text_10">
    <!-- SGDClassifier / CDI1 -->
    <g transform="translate(179.667813 29.716175) scale(0.1 -0.1)">
     <defs>
      <path id="DejaVuSans-Bold-53" d="M 3834 4519 
L 3834 3531 
Q 3450 3703 3084 3790 
Q 2719 3878 2394 3878 
Q 1963 3878 1756 3759 
Q 1550 3641 1550 3391 
Q 1550 3203 1689 3098 
Q 1828 2994 2194 2919 
L 2706 2816 
Q 3484 2659 3812 2340 
Q 4141 2022 4141 1434 
Q 4141 663 3683 286 
Q 3225 -91 2284 -91 
Q 1841 -91 1394 -6 
Q 947 78 500 244 
L 500 1259 
Q 947 1022 1364 901 
Q 1781 781 2169 781 
Q 2563 781 2772 912 
Q 2981 1044 2981 1288 
Q 2981 1506 2839 1625 
Q 2697 1744 2272 1838 
L 1806 1941 
Q 1106 2091 782 2419 
Q 459 2747 459 3303 
Q 459 4000 909 4375 
Q 1359 4750 2203 4750 
Q 2588 4750 2994 4692 
Q 3400 4634 3834 4519 
z
" transform="scale(0.015625)"/>
      <path id="DejaVuSans-Bold-47" d="M 4781 347 
Q 4331 128 3847 18 
Q 3363 -91 2847 -91 
Q 1681 -91 1000 561 
Q 319 1213 319 2328 
Q 319 3456 1012 4103 
Q 1706 4750 2913 4750 
Q 3378 4750 3804 4662 
Q 4231 4575 4609 4403 
L 4609 3438 
Q 4219 3659 3833 3768 
Q 3447 3878 3059 3878 
Q 2341 3878 1952 3476 
Q 1563 3075 1563 2328 
Q 1563 1588 1938 1184 
Q 2313 781 3003 781 
Q 3191 781 3352 804 
Q 3513 828 3641 878 
L 3641 1784 
L 2906 1784 
L 2906 2591 
L 4781 2591 
L 4781 347 
z
" transform="scale(0.015625)"/>
      <path id="DejaVuSans-Bold-44" d="M 1791 3756 
L 1791 909 
L 2222 909 
Q 2959 909 3348 1275 
Q 3738 1641 3738 2338 
Q 3738 3031 3350 3393 
Q 2963 3756 2222 3756 
L 1791 3756 
z
M 588 4666 
L 1856 4666 
Q 2919 4666 3439 4514 
Q 3959 4363 4331 4000 
Q 4659 3684 4818 3271 
Q 4978 2859 4978 2338 
Q 4978 1809 4818 1395 
Q 4659 981 4331 666 
Q 3956 303 3431 151 
Q 2906 0 1856 0 
L 588 0 
L 588 4666 
z
" transform="scale(0.015625)"/>
      <path id="DejaVuSans-Bold-43" d="M 4288 256 
Q 3956 84 3597 -3 
Q 3238 -91 2847 -91 
Q 1681 -91 1000 561 
Q 319 1213 319 2328 
Q 319 3447 1000 4098 
Q 1681 4750 2847 4750 
Q 3238 4750 3597 4662 
Q 3956 4575 4288 4403 
L 4288 3438 
Q 3953 3666 3628 3772 
Q 3303 3878 2944 3878 
Q 2300 3878 1931 3465 
Q 1563 3053 1563 2328 
Q 1563 1606 1931 1193 
Q 2300 781 2944 781 
Q 3303 781 3628 887 
Q 3953 994 4288 1222 
L 4288 256 
z
" transform="scale(0.015625)"/>
      <path id="DejaVuSans-Bold-6c" d="M 538 4863 
L 1656 4863 
L 1656 0 
L 538 0 
L 538 4863 
z
" transform="scale(0.015625)"/>
      <path id="DejaVuSans-Bold-61" d="M 2106 1575 
Q 1756 1575 1579 1456 
Q 1403 1338 1403 1106 
Q 1403 894 1545 773 
Q 1688 653 1941 653 
Q 2256 653 2472 879 
Q 2688 1106 2688 1447 
L 2688 1575 
L 2106 1575 
z
M 3816 1997 
L 3816 0 
L 2688 0 
L 2688 519 
Q 2463 200 2181 54 
Q 1900 -91 1497 -91 
Q 953 -91 614 226 
Q 275 544 275 1050 
Q 275 1666 698 1953 
Q 1122 2241 2028 2241 
L 2688 2241 
L 2688 2328 
Q 2688 2594 2478 2717 
Q 2269 2841 1825 2841 
Q 1466 2841 1156 2769 
Q 847 2697 581 2553 
L 581 3406 
Q 941 3494 1303 3539 
Q 1666 3584 2028 3584 
Q 2975 3584 3395 3211 
Q 3816 2838 3816 1997 
z
" transform="scale(0.015625)"/>
      <path id="DejaVuSans-Bold-73" d="M 3272 3391 
L 3272 2541 
Q 2913 2691 2578 2766 
Q 2244 2841 1947 2841 
Q 1628 2841 1473 2761 
Q 1319 2681 1319 2516 
Q 1319 2381 1436 2309 
Q 1553 2238 1856 2203 
L 2053 2175 
Q 2913 2066 3209 1816 
Q 3506 1566 3506 1031 
Q 3506 472 3093 190 
Q 2681 -91 1863 -91 
Q 1516 -91 1145 -36 
Q 775 19 384 128 
L 384 978 
Q 719 816 1070 734 
Q 1422 653 1784 653 
Q 2113 653 2278 743 
Q 2444 834 2444 1013 
Q 2444 1163 2330 1236 
Q 2216 1309 1875 1350 
L 1678 1375 
Q 931 1469 631 1722 
Q 331 1975 331 2491 
Q 331 3047 712 3315 
Q 1094 3584 1881 3584 
Q 2191 3584 2531 3537 
Q 2872 3491 3272 3391 
z
" transform="scale(0.015625)"/>
      <path id="DejaVuSans-Bold-69" d="M 538 3500 
L 1656 3500 
L 1656 0 
L 538 0 
L 538 3500 
z
M 538 4863 
L 1656 4863 
L 1656 3950 
L 538 3950 
L 538 4863 
z
" transform="scale(0.015625)"/>
      <path id="DejaVuSans-Bold-66" d="M 2841 4863 
L 2841 4128 
L 2222 4128 
Q 1984 4128 1890 4042 
Q 1797 3956 1797 3744 
L 1797 3500 
L 2753 3500 
L 2753 2700 
L 1797 2700 
L 1797 0 
L 678 0 
L 678 2700 
L 122 2700 
L 122 3500 
L 678 3500 
L 678 3744 
Q 678 4316 997 4589 
Q 1316 4863 1984 4863 
L 2841 4863 
z
" transform="scale(0.015625)"/>
      <path id="DejaVuSans-Bold-65" d="M 4031 1759 
L 4031 1441 
L 1416 1441 
Q 1456 1047 1700 850 
Q 1944 653 2381 653 
Q 2734 653 3104 758 
Q 3475 863 3866 1075 
L 3866 213 
Q 3469 63 3072 -14 
Q 2675 -91 2278 -91 
Q 1328 -91 801 392 
Q 275 875 275 1747 
Q 275 2603 792 3093 
Q 1309 3584 2216 3584 
Q 3041 3584 3536 3087 
Q 4031 2591 4031 1759 
z
M 2881 2131 
Q 2881 2450 2695 2645 
Q 2509 2841 2209 2841 
Q 1884 2841 1681 2658 
Q 1478 2475 1428 2131 
L 2881 2131 
z
" transform="scale(0.015625)"/>
      <path id="DejaVuSans-Bold-72" d="M 3138 2547 
Q 2991 2616 2845 2648 
Q 2700 2681 2553 2681 
Q 2122 2681 1889 2404 
Q 1656 2128 1656 1613 
L 1656 0 
L 538 0 
L 538 3500 
L 1656 3500 
L 1656 2925 
Q 1872 3269 2151 3426 
Q 2431 3584 2822 3584 
Q 2878 3584 2943 3579 
Q 3009 3575 3134 3559 
L 3138 2547 
z
" transform="scale(0.015625)"/>
      <path id="DejaVuSans-Bold-20" transform="scale(0.015625)"/>
      <path id="DejaVuSans-Bold-2f" d="M 1644 4666 
L 2338 4666 
L 691 -594 
L 0 -594 
L 1644 4666 
z
" transform="scale(0.015625)"/>
      <path id="DejaVuSans-Bold-49" d="M 588 4666 
L 1791 4666 
L 1791 0 
L 588 0 
L 588 4666 
z
" transform="scale(0.015625)"/>
      <path id="DejaVuSans-Bold-31" d="M 750 831 
L 1813 831 
L 1813 3847 
L 722 3622 
L 722 4441 
L 1806 4666 
L 2950 4666 
L 2950 831 
L 4013 831 
L 4013 0 
L 750 0 
L 750 831 
z
" transform="scale(0.015625)"/>
     </defs>
     <use xlink:href="#DejaVuSans-Bold-53"/>
     <use xlink:href="#DejaVuSans-Bold-47" x="72.021484"/>
     <use xlink:href="#DejaVuSans-Bold-44" x="154.101562"/>
     <use xlink:href="#DejaVuSans-Bold-43" x="237.109375"/>
     <use xlink:href="#DejaVuSans-Bold-6c" x="310.498047"/>
     <use xlink:href="#DejaVuSans-Bold-61" x="344.775391"/>
     <use xlink:href="#DejaVuSans-Bold-73" x="412.255859"/>
     <use xlink:href="#DejaVuSans-Bold-73" x="471.777344"/>
     <use xlink:href="#DejaVuSans-Bold-69" x="531.298828"/>
     <use xlink:href="#DejaVuSans-Bold-66" x="565.576172"/>
     <use xlink:href="#DejaVuSans-Bold-69" x="609.082031"/>
     <use xlink:href="#DejaVuSans-Bold-65" x="643.359375"/>
     <use xlink:href="#DejaVuSans-Bold-72" x="711.181641"/>
     <use xlink:href="#DejaVuSans-Bold-20" x="760.498047"/>
     <use xlink:href="#DejaVuSans-Bold-2f" x="795.3125"/>
     <use xlink:href="#DejaVuSans-Bold-20" x="831.835938"/>
     <use xlink:href="#DejaVuSans-Bold-43" x="866.650391"/>
     <use xlink:href="#DejaVuSans-Bold-44" x="940.039062"/>
     <use xlink:href="#DejaVuSans-Bold-49" x="1023.046875"/>
     <use xlink:href="#DejaVuSans-Bold-31" x="1060.253906"/>
    </g>
   </g>
   <g id="text_11">
    <!-- czułość (recall) -->
    <g transform="translate(198.681875 42.157775) scale(0.1 -0.1)">
     <defs>
      <path id="DejaVuSans-63" d="M 3122 3366 
L 3122 2828 
Q 2878 2963 2633 3030 
Q 2388 3097 2138 3097 
Q 1578 3097 1268 2742 
Q 959 2388 959 1747 
Q 959 1106 1268 751 
Q 1578 397 2138 397 
Q 2388 397 2633 464 
Q 2878 531 3122 666 
L 3122 134 
Q 2881 22 2623 -34 
Q 2366 -91 2075 -91 
Q 1284 -91 818 406 
Q 353 903 353 1747 
Q 353 2603 823 3093 
Q 1294 3584 2113 3584 
Q 2378 3584 2631 3529 
Q 2884 3475 3122 3366 
z
" transform="scale(0.015625)"/>
      <path id="DejaVuSans-7a" d="M 353 3500 
L 3084 3500 
L 3084 2975 
L 922 459 
L 3084 459 
L 3084 0 
L 275 0 
L 275 525 
L 2438 3041 
L 353 3041 
L 353 3500 
z
" transform="scale(0.015625)"/>
      <path id="DejaVuSans-75" d="M 544 1381 
L 544 3500 
L 1119 3500 
L 1119 1403 
Q 1119 906 1312 657 
Q 1506 409 1894 409 
Q 2359 409 2629 706 
Q 2900 1003 2900 1516 
L 2900 3500 
L 3475 3500 
L 3475 0 
L 2900 0 
L 2900 538 
Q 2691 219 2414 64 
Q 2138 -91 1772 -91 
Q 1169 -91 856 284 
Q 544 659 544 1381 
z
M 1991 3584 
L 1991 3584 
z
" transform="scale(0.015625)"/>
      <path id="DejaVuSans-142" d="M 622 4863 
L 1197 4863 
L 1197 2981 
L 1588 3263 
L 1825 2931 
L 1197 2491 
L 1197 0 
L 622 0 
L 622 2081 
L 238 1806 
L 6 2138 
L 622 2578 
L 622 4863 
z
" transform="scale(0.015625)"/>
      <path id="DejaVuSans-6f" d="M 1959 3097 
Q 1497 3097 1228 2736 
Q 959 2375 959 1747 
Q 959 1119 1226 758 
Q 1494 397 1959 397 
Q 2419 397 2687 759 
Q 2956 1122 2956 1747 
Q 2956 2369 2687 2733 
Q 2419 3097 1959 3097 
z
M 1959 3584 
Q 2709 3584 3137 3096 
Q 3566 2609 3566 1747 
Q 3566 888 3137 398 
Q 2709 -91 1959 -91 
Q 1206 -91 779 398 
Q 353 888 353 1747 
Q 353 2609 779 3096 
Q 1206 3584 1959 3584 
z
" transform="scale(0.015625)"/>
      <path id="DejaVuSans-15b" d="M 2242 5119 
L 2864 5119 
L 1846 3944 
L 1367 3944 
L 2242 5119 
z
M 2834 3397 
L 2834 2853 
Q 2591 2978 2328 3040 
Q 2066 3103 1784 3103 
Q 1356 3103 1142 2972 
Q 928 2841 928 2578 
Q 928 2378 1081 2264 
Q 1234 2150 1697 2047 
L 1894 2003 
Q 2506 1872 2764 1633 
Q 3022 1394 3022 966 
Q 3022 478 2636 193 
Q 2250 -91 1575 -91 
Q 1294 -91 989 -36 
Q 684 19 347 128 
L 347 722 
Q 666 556 975 473 
Q 1284 391 1588 391 
Q 1994 391 2212 530 
Q 2431 669 2431 922 
Q 2431 1156 2273 1281 
Q 2116 1406 1581 1522 
L 1381 1569 
Q 847 1681 609 1914 
Q 372 2147 372 2553 
Q 372 3047 722 3315 
Q 1072 3584 1716 3584 
Q 2034 3584 2315 3537 
Q 2597 3491 2834 3397 
z
" transform="scale(0.015625)"/>
      <path id="DejaVuSans-107" d="M 3122 3366 
L 3122 2828 
Q 2878 2963 2633 3030 
Q 2388 3097 2138 3097 
Q 1578 3097 1268 2742 
Q 959 2388 959 1747 
Q 959 1106 1268 751 
Q 1578 397 2138 397 
Q 2388 397 2633 464 
Q 2878 531 3122 666 
L 3122 134 
Q 2881 22 2623 -34 
Q 2366 -91 2075 -91 
Q 1284 -91 818 406 
Q 353 903 353 1747 
Q 353 2603 823 3093 
Q 1294 3584 2113 3584 
Q 2378 3584 2631 3529 
Q 2884 3475 3122 3366 
z
M 2466 5119 
L 3088 5119 
L 2070 3944 
L 1591 3944 
L 2466 5119 
z
" transform="scale(0.015625)"/>
      <path id="DejaVuSans-20" transform="scale(0.015625)"/>
      <path id="DejaVuSans-28" d="M 1984 4856 
Q 1566 4138 1362 3434 
Q 1159 2731 1159 2009 
Q 1159 1288 1364 580 
Q 1569 -128 1984 -844 
L 1484 -844 
Q 1016 -109 783 600 
Q 550 1309 550 2009 
Q 550 2706 781 3412 
Q 1013 4119 1484 4856 
L 1984 4856 
z
" transform="scale(0.015625)"/>
      <path id="DejaVuSans-72" d="M 2631 2963 
Q 2534 3019 2420 3045 
Q 2306 3072 2169 3072 
Q 1681 3072 1420 2755 
Q 1159 2438 1159 1844 
L 1159 0 
L 581 0 
L 581 3500 
L 1159 3500 
L 1159 2956 
Q 1341 3275 1631 3429 
Q 1922 3584 2338 3584 
Q 2397 3584 2469 3576 
Q 2541 3569 2628 3553 
L 2631 2963 
z
" transform="scale(0.015625)"/>
      <path id="DejaVuSans-65" d="M 3597 1894 
L 3597 1613 
L 953 1613 
Q 991 1019 1311 708 
Q 1631 397 2203 397 
Q 2534 397 2845 478 
Q 3156 559 3463 722 
L 3463 178 
Q 3153 47 2828 -22 
Q 2503 -91 2169 -91 
Q 1331 -91 842 396 
Q 353 884 353 1716 
Q 353 2575 817 3079 
Q 1281 3584 2069 3584 
Q 2775 3584 3186 3129 
Q 3597 2675 3597 1894 
z
M 3022 2063 
Q 3016 2534 2758 2815 
Q 2500 3097 2075 3097 
Q 1594 3097 1305 2825 
Q 1016 2553 972 2059 
L 3022 2063 
z
" transform="scale(0.015625)"/>
      <path id="DejaVuSans-61" d="M 2194 1759 
Q 1497 1759 1228 1600 
Q 959 1441 959 1056 
Q 959 750 1161 570 
Q 1363 391 1709 391 
Q 2188 391 2477 730 
Q 2766 1069 2766 1631 
L 2766 1759 
L 2194 1759 
z
M 3341 1997 
L 3341 0 
L 2766 0 
L 2766 531 
Q 2569 213 2275 61 
Q 1981 -91 1556 -91 
Q 1019 -91 701 211 
Q 384 513 384 1019 
Q 384 1609 779 1909 
Q 1175 2209 1959 2209 
L 2766 2209 
L 2766 2266 
Q 2766 2663 2505 2880 
Q 2244 3097 1772 3097 
Q 1472 3097 1187 3025 
Q 903 2953 641 2809 
L 641 3341 
Q 956 3463 1253 3523 
Q 1550 3584 1831 3584 
Q 2591 3584 2966 3190 
Q 3341 2797 3341 1997 
z
" transform="scale(0.015625)"/>
      <path id="DejaVuSans-6c" d="M 603 4863 
L 1178 4863 
L 1178 0 
L 603 0 
L 603 4863 
z
" transform="scale(0.015625)"/>
      <path id="DejaVuSans-29" d="M 513 4856 
L 1013 4856 
Q 1481 4119 1714 3412 
Q 1947 2706 1947 2009 
Q 1947 1309 1714 600 
Q 1481 -109 1013 -844 
L 513 -844 
Q 928 -128 1133 580 
Q 1338 1288 1338 2009 
Q 1338 2731 1133 3434 
Q 928 4138 513 4856 
z
" transform="scale(0.015625)"/>
     </defs>
     <use xlink:href="#DejaVuSans-63"/>
     <use xlink:href="#DejaVuSans-7a" x="54.980469"/>
     <use xlink:href="#DejaVuSans-75" x="107.470703"/>
     <use xlink:href="#DejaVuSans-142" x="170.849609"/>
     <use xlink:href="#DejaVuSans-6f" x="199.267578"/>
     <use xlink:href="#DejaVuSans-15b" x="260.449219"/>
     <use xlink:href="#DejaVuSans-107" x="312.548828"/>
     <use xlink:href="#DejaVuSans-20" x="367.529297"/>
     <use xlink:href="#DejaVuSans-28" x="399.316406"/>
     <use xlink:href="#DejaVuSans-72" x="438.330078"/>
     <use xlink:href="#DejaVuSans-65" x="477.193359"/>
     <use xlink:href="#DejaVuSans-63" x="538.716797"/>
     <use xlink:href="#DejaVuSans-61" x="593.697266"/>
     <use xlink:href="#DejaVuSans-6c" x="654.976562"/>
     <use xlink:href="#DejaVuSans-6c" x="682.759766"/>
     <use xlink:href="#DejaVuSans-29" x="710.542969"/>
    </g>
   </g>
   <g id="text_12">
    <!-- swoistość (specificity) -->
    <g transform="translate(92.794876 156.775228) rotate(-60) scale(0.1 -0.1)">
     <defs>
      <path id="DejaVuSans-73" d="M 2834 3397 
L 2834 2853 
Q 2591 2978 2328 3040 
Q 2066 3103 1784 3103 
Q 1356 3103 1142 2972 
Q 928 2841 928 2578 
Q 928 2378 1081 2264 
Q 1234 2150 1697 2047 
L 1894 2003 
Q 2506 1872 2764 1633 
Q 3022 1394 3022 966 
Q 3022 478 2636 193 
Q 2250 -91 1575 -91 
Q 1294 -91 989 -36 
Q 684 19 347 128 
L 347 722 
Q 666 556 975 473 
Q 1284 391 1588 391 
Q 1994 391 2212 530 
Q 2431 669 2431 922 
Q 2431 1156 2273 1281 
Q 2116 1406 1581 1522 
L 1381 1569 
Q 847 1681 609 1914 
Q 372 2147 372 2553 
Q 372 3047 722 3315 
Q 1072 3584 1716 3584 
Q 2034 3584 2315 3537 
Q 2597 3491 2834 3397 
z
" transform="scale(0.015625)"/>
      <path id="DejaVuSans-77" d="M 269 3500 
L 844 3500 
L 1563 769 
L 2278 3500 
L 2956 3500 
L 3675 769 
L 4391 3500 
L 4966 3500 
L 4050 0 
L 3372 0 
L 2619 2869 
L 1863 0 
L 1184 0 
L 269 3500 
z
" transform="scale(0.015625)"/>
      <path id="DejaVuSans-69" d="M 603 3500 
L 1178 3500 
L 1178 0 
L 603 0 
L 603 3500 
z
M 603 4863 
L 1178 4863 
L 1178 4134 
L 603 4134 
L 603 4863 
z
" transform="scale(0.015625)"/>
      <path id="DejaVuSans-74" d="M 1172 4494 
L 1172 3500 
L 2356 3500 
L 2356 3053 
L 1172 3053 
L 1172 1153 
Q 1172 725 1289 603 
Q 1406 481 1766 481 
L 2356 481 
L 2356 0 
L 1766 0 
Q 1100 0 847 248 
Q 594 497 594 1153 
L 594 3053 
L 172 3053 
L 172 3500 
L 594 3500 
L 594 4494 
L 1172 4494 
z
" transform="scale(0.015625)"/>
      <path id="DejaVuSans-70" d="M 1159 525 
L 1159 -1331 
L 581 -1331 
L 581 3500 
L 1159 3500 
L 1159 2969 
Q 1341 3281 1617 3432 
Q 1894 3584 2278 3584 
Q 2916 3584 3314 3078 
Q 3713 2572 3713 1747 
Q 3713 922 3314 415 
Q 2916 -91 2278 -91 
Q 1894 -91 1617 61 
Q 1341 213 1159 525 
z
M 3116 1747 
Q 3116 2381 2855 2742 
Q 2594 3103 2138 3103 
Q 1681 3103 1420 2742 
Q 1159 2381 1159 1747 
Q 1159 1113 1420 752 
Q 1681 391 2138 391 
Q 2594 391 2855 752 
Q 3116 1113 3116 1747 
z
" transform="scale(0.015625)"/>
      <path id="DejaVuSans-66" d="M 2375 4863 
L 2375 4384 
L 1825 4384 
Q 1516 4384 1395 4259 
Q 1275 4134 1275 3809 
L 1275 3500 
L 2222 3500 
L 2222 3053 
L 1275 3053 
L 1275 0 
L 697 0 
L 697 3053 
L 147 3053 
L 147 3500 
L 697 3500 
L 697 3744 
Q 697 4328 969 4595 
Q 1241 4863 1831 4863 
L 2375 4863 
z
" transform="scale(0.015625)"/>
      <path id="DejaVuSans-79" d="M 2059 -325 
Q 1816 -950 1584 -1140 
Q 1353 -1331 966 -1331 
L 506 -1331 
L 506 -850 
L 844 -850 
Q 1081 -850 1212 -737 
Q 1344 -625 1503 -206 
L 1606 56 
L 191 3500 
L 800 3500 
L 1894 763 
L 2988 3500 
L 3597 3500 
L 2059 -325 
z
" transform="scale(0.015625)"/>
     </defs>
     <use xlink:href="#DejaVuSans-73"/>
     <use xlink:href="#DejaVuSans-77" x="52.099609"/>
     <use xlink:href="#DejaVuSans-6f" x="133.886719"/>
     <use xlink:href="#DejaVuSans-69" x="195.068359"/>
     <use xlink:href="#DejaVuSans-73" x="222.851562"/>
     <use xlink:href="#DejaVuSans-74" x="274.951172"/>
     <use xlink:href="#DejaVuSans-6f" x="314.160156"/>
     <use xlink:href="#DejaVuSans-15b" x="375.341797"/>
     <use xlink:href="#DejaVuSans-107" x="427.441406"/>
     <use xlink:href="#DejaVuSans-20" x="482.421875"/>
     <use xlink:href="#DejaVuSans-28" x="514.208984"/>
     <use xlink:href="#DejaVuSans-73" x="553.222656"/>
     <use xlink:href="#DejaVuSans-70" x="605.322266"/>
     <use xlink:href="#DejaVuSans-65" x="668.798828"/>
     <use xlink:href="#DejaVuSans-63" x="730.322266"/>
     <use xlink:href="#DejaVuSans-69" x="785.302734"/>
     <use xlink:href="#DejaVuSans-66" x="813.085938"/>
     <use xlink:href="#DejaVuSans-69" x="848.291016"/>
     <use xlink:href="#DejaVuSans-63" x="876.074219"/>
     <use xlink:href="#DejaVuSans-69" x="931.054688"/>
     <use xlink:href="#DejaVuSans-74" x="958.837891"/>
     <use xlink:href="#DejaVuSans-79" x="998.046875"/>
     <use xlink:href="#DejaVuSans-29" x="1057.226562"/>
    </g>
   </g>
   <g id="text_13">
    <!-- precyzja (precision) -->
    <g transform="translate(90.736043 203.608269) rotate(-300) scale(0.1 -0.1)">
     <defs>
      <path id="DejaVuSans-6a" d="M 603 3500 
L 1178 3500 
L 1178 -63 
Q 1178 -731 923 -1031 
Q 669 -1331 103 -1331 
L -116 -1331 
L -116 -844 
L 38 -844 
Q 366 -844 484 -692 
Q 603 -541 603 -63 
L 603 3500 
z
M 603 4863 
L 1178 4863 
L 1178 4134 
L 603 4134 
L 603 4863 
z
" transform="scale(0.015625)"/>
      <path id="DejaVuSans-6e" d="M 3513 2113 
L 3513 0 
L 2938 0 
L 2938 2094 
Q 2938 2591 2744 2837 
Q 2550 3084 2163 3084 
Q 1697 3084 1428 2787 
Q 1159 2491 1159 1978 
L 1159 0 
L 581 0 
L 581 3500 
L 1159 3500 
L 1159 2956 
Q 1366 3272 1645 3428 
Q 1925 3584 2291 3584 
Q 2894 3584 3203 3211 
Q 3513 2838 3513 2113 
z
" transform="scale(0.015625)"/>
     </defs>
     <use xlink:href="#DejaVuSans-70"/>
     <use xlink:href="#DejaVuSans-72" x="63.476562"/>
     <use xlink:href="#DejaVuSans-65" x="102.339844"/>
     <use xlink:href="#DejaVuSans-63" x="163.863281"/>
     <use xlink:href="#DejaVuSans-79" x="218.84375"/>
     <use xlink:href="#DejaVuSans-7a" x="278.023438"/>
     <use xlink:href="#DejaVuSans-6a" x="330.513672"/>
     <use xlink:href="#DejaVuSans-61" x="358.296875"/>
     <use xlink:href="#DejaVuSans-20" x="419.576172"/>
     <use xlink:href="#DejaVuSans-28" x="451.363281"/>
     <use xlink:href="#DejaVuSans-70" x="490.376953"/>
     <use xlink:href="#DejaVuSans-72" x="553.853516"/>
     <use xlink:href="#DejaVuSans-65" x="592.716797"/>
     <use xlink:href="#DejaVuSans-63" x="654.240234"/>
     <use xlink:href="#DejaVuSans-69" x="709.220703"/>
     <use xlink:href="#DejaVuSans-73" x="737.003906"/>
     <use xlink:href="#DejaVuSans-69" x="789.103516"/>
     <use xlink:href="#DejaVuSans-6f" x="816.886719"/>
     <use xlink:href="#DejaVuSans-6e" x="878.068359"/>
     <use xlink:href="#DejaVuSans-29" x="941.447266"/>
    </g>
   </g>
   <g id="text_14">
    <!-- zbalansowana dokładność (BAC) -->
    <g transform="translate(154.920937 315.872975) scale(0.1 -0.1)">
     <defs>
      <path id="DejaVuSans-62" d="M 3116 1747 
Q 3116 2381 2855 2742 
Q 2594 3103 2138 3103 
Q 1681 3103 1420 2742 
Q 1159 2381 1159 1747 
Q 1159 1113 1420 752 
Q 1681 391 2138 391 
Q 2594 391 2855 752 
Q 3116 1113 3116 1747 
z
M 1159 2969 
Q 1341 3281 1617 3432 
Q 1894 3584 2278 3584 
Q 2916 3584 3314 3078 
Q 3713 2572 3713 1747 
Q 3713 922 3314 415 
Q 2916 -91 2278 -91 
Q 1894 -91 1617 61 
Q 1341 213 1159 525 
L 1159 0 
L 581 0 
L 581 4863 
L 1159 4863 
L 1159 2969 
z
" transform="scale(0.015625)"/>
      <path id="DejaVuSans-64" d="M 2906 2969 
L 2906 4863 
L 3481 4863 
L 3481 0 
L 2906 0 
L 2906 525 
Q 2725 213 2448 61 
Q 2172 -91 1784 -91 
Q 1150 -91 751 415 
Q 353 922 353 1747 
Q 353 2572 751 3078 
Q 1150 3584 1784 3584 
Q 2172 3584 2448 3432 
Q 2725 3281 2906 2969 
z
M 947 1747 
Q 947 1113 1208 752 
Q 1469 391 1925 391 
Q 2381 391 2643 752 
Q 2906 1113 2906 1747 
Q 2906 2381 2643 2742 
Q 2381 3103 1925 3103 
Q 1469 3103 1208 2742 
Q 947 2381 947 1747 
z
" transform="scale(0.015625)"/>
      <path id="DejaVuSans-6b" d="M 581 4863 
L 1159 4863 
L 1159 1991 
L 2875 3500 
L 3609 3500 
L 1753 1863 
L 3688 0 
L 2938 0 
L 1159 1709 
L 1159 0 
L 581 0 
L 581 4863 
z
" transform="scale(0.015625)"/>
      <path id="DejaVuSans-42" d="M 1259 2228 
L 1259 519 
L 2272 519 
Q 2781 519 3026 730 
Q 3272 941 3272 1375 
Q 3272 1813 3026 2020 
Q 2781 2228 2272 2228 
L 1259 2228 
z
M 1259 4147 
L 1259 2741 
L 2194 2741 
Q 2656 2741 2882 2914 
Q 3109 3088 3109 3444 
Q 3109 3797 2882 3972 
Q 2656 4147 2194 4147 
L 1259 4147 
z
M 628 4666 
L 2241 4666 
Q 2963 4666 3353 4366 
Q 3744 4066 3744 3513 
Q 3744 3084 3544 2831 
Q 3344 2578 2956 2516 
Q 3422 2416 3680 2098 
Q 3938 1781 3938 1306 
Q 3938 681 3513 340 
Q 3088 0 2303 0 
L 628 0 
L 628 4666 
z
" transform="scale(0.015625)"/>
      <path id="DejaVuSans-41" d="M 2188 4044 
L 1331 1722 
L 3047 1722 
L 2188 4044 
z
M 1831 4666 
L 2547 4666 
L 4325 0 
L 3669 0 
L 3244 1197 
L 1141 1197 
L 716 0 
L 50 0 
L 1831 4666 
z
" transform="scale(0.015625)"/>
      <path id="DejaVuSans-43" d="M 4122 4306 
L 4122 3641 
Q 3803 3938 3442 4084 
Q 3081 4231 2675 4231 
Q 1875 4231 1450 3742 
Q 1025 3253 1025 2328 
Q 1025 1406 1450 917 
Q 1875 428 2675 428 
Q 3081 428 3442 575 
Q 3803 722 4122 1019 
L 4122 359 
Q 3791 134 3420 21 
Q 3050 -91 2638 -91 
Q 1578 -91 968 557 
Q 359 1206 359 2328 
Q 359 3453 968 4101 
Q 1578 4750 2638 4750 
Q 3056 4750 3426 4639 
Q 3797 4528 4122 4306 
z
" transform="scale(0.015625)"/>
     </defs>
     <use xlink:href="#DejaVuSans-7a"/>
     <use xlink:href="#DejaVuSans-62" x="52.490234"/>
     <use xlink:href="#DejaVuSans-61" x="115.966797"/>
     <use xlink:href="#DejaVuSans-6c" x="177.246094"/>
     <use xlink:href="#DejaVuSans-61" x="205.029297"/>
     <use xlink:href="#DejaVuSans-6e" x="266.308594"/>
     <use xlink:href="#DejaVuSans-73" x="329.6875"/>
     <use xlink:href="#DejaVuSans-6f" x="381.787109"/>
     <use xlink:href="#DejaVuSans-77" x="442.96875"/>
     <use xlink:href="#DejaVuSans-61" x="524.755859"/>
     <use xlink:href="#DejaVuSans-6e" x="586.035156"/>
     <use xlink:href="#DejaVuSans-61" x="649.414062"/>
     <use xlink:href="#DejaVuSans-20" x="710.693359"/>
     <use xlink:href="#DejaVuSans-64" x="742.480469"/>
     <use xlink:href="#DejaVuSans-6f" x="805.957031"/>
     <use xlink:href="#DejaVuSans-6b" x="867.138672"/>
     <use xlink:href="#DejaVuSans-142" x="925.048828"/>
     <use xlink:href="#DejaVuSans-61" x="953.466797"/>
     <use xlink:href="#DejaVuSans-64" x="1014.746094"/>
     <use xlink:href="#DejaVuSans-6e" x="1078.222656"/>
     <use xlink:href="#DejaVuSans-6f" x="1141.601562"/>
     <use xlink:href="#DejaVuSans-15b" x="1202.783203"/>
     <use xlink:href="#DejaVuSans-107" x="1254.882812"/>
     <use xlink:href="#DejaVuSans-20" x="1309.863281"/>
     <use xlink:href="#DejaVuSans-28" x="1341.650391"/>
     <use xlink:href="#DejaVuSans-42" x="1380.664062"/>
     <use xlink:href="#DejaVuSans-41" x="1449.267578"/>
     <use xlink:href="#DejaVuSans-43" x="1515.925781"/>
     <use xlink:href="#DejaVuSans-29" x="1585.75"/>
    </g>
   </g>
   <g id="text_15">
    <!-- F1 -->
    <g transform="translate(354.043332 251.31003) rotate(-60) scale(0.1 -0.1)">
     <defs>
      <path id="DejaVuSans-46" d="M 628 4666 
L 3309 4666 
L 3309 4134 
L 1259 4134 
L 1259 2759 
L 3109 2759 
L 3109 2228 
L 1259 2228 
L 1259 0 
L 628 0 
L 628 4666 
z
" transform="scale(0.015625)"/>
      <path id="DejaVuSans-31" d="M 794 531 
L 1825 531 
L 1825 4091 
L 703 3866 
L 703 4441 
L 1819 4666 
L 2450 4666 
L 2450 531 
L 3481 531 
L 3481 0 
L 794 0 
L 794 531 
z
" transform="scale(0.015625)"/>
     </defs>
     <use xlink:href="#DejaVuSans-46"/>
     <use xlink:href="#DejaVuSans-31" x="57.519531"/>
    </g>
   </g>
   <g id="text_16">
    <!-- Gmean -->
    <g transform="translate(343.265516 93.571746) rotate(-300) scale(0.1 -0.1)">
     <defs>
      <path id="DejaVuSans-47" d="M 3809 666 
L 3809 1919 
L 2778 1919 
L 2778 2438 
L 4434 2438 
L 4434 434 
Q 4069 175 3628 42 
Q 3188 -91 2688 -91 
Q 1594 -91 976 548 
Q 359 1188 359 2328 
Q 359 3472 976 4111 
Q 1594 4750 2688 4750 
Q 3144 4750 3555 4637 
Q 3966 4525 4313 4306 
L 4313 3634 
Q 3963 3931 3569 4081 
Q 3175 4231 2741 4231 
Q 1884 4231 1454 3753 
Q 1025 3275 1025 2328 
Q 1025 1384 1454 906 
Q 1884 428 2741 428 
Q 3075 428 3337 486 
Q 3600 544 3809 666 
z
" transform="scale(0.015625)"/>
      <path id="DejaVuSans-6d" d="M 3328 2828 
Q 3544 3216 3844 3400 
Q 4144 3584 4550 3584 
Q 5097 3584 5394 3201 
Q 5691 2819 5691 2113 
L 5691 0 
L 5113 0 
L 5113 2094 
Q 5113 2597 4934 2840 
Q 4756 3084 4391 3084 
Q 3944 3084 3684 2787 
Q 3425 2491 3425 1978 
L 3425 0 
L 2847 0 
L 2847 2094 
Q 2847 2600 2669 2842 
Q 2491 3084 2119 3084 
Q 1678 3084 1418 2786 
Q 1159 2488 1159 1978 
L 1159 0 
L 581 0 
L 581 3500 
L 1159 3500 
L 1159 2956 
Q 1356 3278 1631 3431 
Q 1906 3584 2284 3584 
Q 2666 3584 2933 3390 
Q 3200 3197 3328 2828 
z
" transform="scale(0.015625)"/>
     </defs>
     <use xlink:href="#DejaVuSans-47"/>
     <use xlink:href="#DejaVuSans-6d" x="77.490234"/>
     <use xlink:href="#DejaVuSans-65" x="174.902344"/>
     <use xlink:href="#DejaVuSans-61" x="236.425781"/>
     <use xlink:href="#DejaVuSans-6e" x="297.705078"/>
    </g>
   </g>
   <g id="legend_1">
    <g id="patch_9">
     <path d="M 121.235285 353.340956 
L 351.084715 353.340956 
Q 352.750715 353.340956 352.750715 351.674956 
L 352.750715 331.3862 
Q 352.750715 329.7202 351.084715 329.7202 
L 121.235285 329.7202 
Q 119.569285 329.7202 119.569285 331.3862 
L 119.569285 351.674956 
Q 119.569285 353.340956 121.235285 353.340956 
z
" style="fill: #ffffff; opacity: 0.8; stroke: #cccccc; stroke-linejoin: miter"/>
    </g>
    <g id="line2d_22">
     <path d="M 122.901285 336.466198 
L 131.231285 336.466198 
L 139.561285 336.466198 
" style="fill: none; stroke: #0000ff; stroke-width: 1.5; stroke-linecap: square"/>
    </g>
    <g id="text_17">
     <!-- ONSBoost -->
     <g transform="translate(146.225285 339.381698) scale(0.0833 -0.0833)">
      <defs>
       <path id="DejaVuSans-4f" d="M 2522 4238 
Q 1834 4238 1429 3725 
Q 1025 3213 1025 2328 
Q 1025 1447 1429 934 
Q 1834 422 2522 422 
Q 3209 422 3611 934 
Q 4013 1447 4013 2328 
Q 4013 3213 3611 3725 
Q 3209 4238 2522 4238 
z
M 2522 4750 
Q 3503 4750 4090 4092 
Q 4678 3434 4678 2328 
Q 4678 1225 4090 567 
Q 3503 -91 2522 -91 
Q 1538 -91 948 565 
Q 359 1222 359 2328 
Q 359 3434 948 4092 
Q 1538 4750 2522 4750 
z
" transform="scale(0.015625)"/>
       <path id="DejaVuSans-4e" d="M 628 4666 
L 1478 4666 
L 3547 763 
L 3547 4666 
L 4159 4666 
L 4159 0 
L 3309 0 
L 1241 3903 
L 1241 0 
L 628 0 
L 628 4666 
z
" transform="scale(0.015625)"/>
       <path id="DejaVuSans-53" d="M 3425 4513 
L 3425 3897 
Q 3066 4069 2747 4153 
Q 2428 4238 2131 4238 
Q 1616 4238 1336 4038 
Q 1056 3838 1056 3469 
Q 1056 3159 1242 3001 
Q 1428 2844 1947 2747 
L 2328 2669 
Q 3034 2534 3370 2195 
Q 3706 1856 3706 1288 
Q 3706 609 3251 259 
Q 2797 -91 1919 -91 
Q 1588 -91 1214 -16 
Q 841 59 441 206 
L 441 856 
Q 825 641 1194 531 
Q 1563 422 1919 422 
Q 2459 422 2753 634 
Q 3047 847 3047 1241 
Q 3047 1584 2836 1778 
Q 2625 1972 2144 2069 
L 1759 2144 
Q 1053 2284 737 2584 
Q 422 2884 422 3419 
Q 422 4038 858 4394 
Q 1294 4750 2059 4750 
Q 2388 4750 2728 4690 
Q 3069 4631 3425 4513 
z
" transform="scale(0.015625)"/>
      </defs>
      <use xlink:href="#DejaVuSans-4f"/>
      <use xlink:href="#DejaVuSans-4e" x="78.710938"/>
      <use xlink:href="#DejaVuSans-53" x="153.515625"/>
      <use xlink:href="#DejaVuSans-42" x="216.992188"/>
      <use xlink:href="#DejaVuSans-6f" x="285.595703"/>
      <use xlink:href="#DejaVuSans-6f" x="346.777344"/>
      <use xlink:href="#DejaVuSans-73" x="407.958984"/>
      <use xlink:href="#DejaVuSans-74" x="460.058594"/>
     </g>
    </g>
    <g id="line2d_23">
     <path d="M 122.901285 345.361077 
L 131.231285 345.361077 
L 139.561285 345.361077 
" style="fill: none; stroke: #ff0000; stroke-width: 1.5; stroke-linecap: square"/>
    </g>
    <g id="text_18">
     <!-- OB -->
     <g transform="translate(146.225285 348.276577) scale(0.0833 -0.0833)">
      <use xlink:href="#DejaVuSans-4f"/>
      <use xlink:href="#DejaVuSans-42" x="78.710938"/>
     </g>
    </g>
    <g id="line2d_24">
     <path d="M 204.476715 336.466198 
L 212.806715 336.466198 
L 221.136715 336.466198 
" style="fill: none; stroke: #008000; stroke-width: 1.5; stroke-linecap: square"/>
    </g>
    <g id="text_19">
     <!-- OnlineBoosting -->
     <g transform="translate(227.800715 339.381698) scale(0.0833 -0.0833)">
      <defs>
       <path id="DejaVuSans-67" d="M 2906 1791 
Q 2906 2416 2648 2759 
Q 2391 3103 1925 3103 
Q 1463 3103 1205 2759 
Q 947 2416 947 1791 
Q 947 1169 1205 825 
Q 1463 481 1925 481 
Q 2391 481 2648 825 
Q 2906 1169 2906 1791 
z
M 3481 434 
Q 3481 -459 3084 -895 
Q 2688 -1331 1869 -1331 
Q 1566 -1331 1297 -1286 
Q 1028 -1241 775 -1147 
L 775 -588 
Q 1028 -725 1275 -790 
Q 1522 -856 1778 -856 
Q 2344 -856 2625 -561 
Q 2906 -266 2906 331 
L 2906 616 
Q 2728 306 2450 153 
Q 2172 0 1784 0 
Q 1141 0 747 490 
Q 353 981 353 1791 
Q 353 2603 747 3093 
Q 1141 3584 1784 3584 
Q 2172 3584 2450 3431 
Q 2728 3278 2906 2969 
L 2906 3500 
L 3481 3500 
L 3481 434 
z
" transform="scale(0.015625)"/>
      </defs>
      <use xlink:href="#DejaVuSans-4f"/>
      <use xlink:href="#DejaVuSans-6e" x="78.710938"/>
      <use xlink:href="#DejaVuSans-6c" x="142.089844"/>
      <use xlink:href="#DejaVuSans-69" x="169.873047"/>
      <use xlink:href="#DejaVuSans-6e" x="197.65625"/>
      <use xlink:href="#DejaVuSans-65" x="261.035156"/>
      <use xlink:href="#DejaVuSans-42" x="322.558594"/>
      <use xlink:href="#DejaVuSans-6f" x="391.162109"/>
      <use xlink:href="#DejaVuSans-6f" x="452.34375"/>
      <use xlink:href="#DejaVuSans-73" x="513.525391"/>
      <use xlink:href="#DejaVuSans-74" x="565.625"/>
      <use xlink:href="#DejaVuSans-69" x="604.833984"/>
      <use xlink:href="#DejaVuSans-6e" x="632.617188"/>
      <use xlink:href="#DejaVuSans-67" x="695.996094"/>
     </g>
    </g>
    <g id="line2d_25">
     <path d="M 204.476715 345.361077 
L 212.806715 345.361077 
L 221.136715 345.361077 
" style="fill: none; stroke: #bf00bf; stroke-width: 1.5; stroke-linecap: square"/>
    </g>
    <g id="text_20">
     <!-- OOB -->
     <g transform="translate(227.800715 348.276577) scale(0.0833 -0.0833)">
      <use xlink:href="#DejaVuSans-4f"/>
      <use xlink:href="#DejaVuSans-4f" x="78.710938"/>
      <use xlink:href="#DejaVuSans-42" x="157.421875"/>
     </g>
    </g>
    <g id="line2d_26">
     <path d="M 307.725763 336.466198 
L 316.055763 336.466198 
L 324.385763 336.466198 
" style="fill: none; stroke: #bfbf00; stroke-width: 1.5; stroke-linecap: square"/>
    </g>
    <g id="text_21">
     <!-- UOB -->
     <g transform="translate(331.049763 339.381698) scale(0.0833 -0.0833)">
      <defs>
       <path id="DejaVuSans-55" d="M 556 4666 
L 1191 4666 
L 1191 1831 
Q 1191 1081 1462 751 
Q 1734 422 2344 422 
Q 2950 422 3222 751 
Q 3494 1081 3494 1831 
L 3494 4666 
L 4128 4666 
L 4128 1753 
Q 4128 841 3676 375 
Q 3225 -91 2344 -91 
Q 1459 -91 1007 375 
Q 556 841 556 1753 
L 556 4666 
z
" transform="scale(0.015625)"/>
      </defs>
      <use xlink:href="#DejaVuSans-55"/>
      <use xlink:href="#DejaVuSans-4f" x="73.193359"/>
      <use xlink:href="#DejaVuSans-42" x="151.904297"/>
     </g>
    </g>
   </g>
  </g>
 </g>
 <defs>
  <clipPath id="pb874f50569">
   <path d="M 360.576 176.256 
C 360.576 159.917841 357.357739 143.738549 351.105396 128.644058 
C 344.853053 113.549567 335.688221 99.833426 324.135397 88.280603 
C 312.582574 76.727779 298.866433 67.562947 283.771942 61.310604 
C 268.677451 55.058261 252.498159 51.84 236.16 51.84 
C 219.821841 51.84 203.642549 55.058261 188.548058 61.310604 
C 173.453567 67.562947 159.737426 76.727779 148.184603 88.280603 
C 136.631779 99.833426 127.466947 113.549567 121.214604 128.644058 
C 114.962261 143.738549 111.744 159.917841 111.744 176.256 
C 111.744 192.594159 114.962261 208.773451 121.214604 223.867942 
C 127.466947 238.962433 136.631779 252.678574 148.184603 264.231397 
C 159.737426 275.784221 173.453567 284.949053 188.548058 291.201396 
C 203.642549 297.453739 219.821841 300.672 236.16 300.672 
C 252.498159 300.672 268.677451 297.453739 283.771942 291.201396 
C 298.866433 284.949053 312.582574 275.784221 324.135397 264.231397 
C 335.688221 252.678574 344.853053 238.962433 351.105396 223.867942 
C 357.357739 208.773451 360.576 192.594159 360.576 176.256 
M 236.16 176.256 
C 236.16 176.256 236.16 176.256 236.16 176.256 
C 236.16 176.256 236.16 176.256 236.16 176.256 
C 236.16 176.256 236.16 176.256 236.16 176.256 
C 236.16 176.256 236.16 176.256 236.16 176.256 
C 236.16 176.256 236.16 176.256 236.16 176.256 
C 236.16 176.256 236.16 176.256 236.16 176.256 
C 236.16 176.256 236.16 176.256 236.16 176.256 
C 236.16 176.256 236.16 176.256 236.16 176.256 
C 236.16 176.256 236.16 176.256 236.16 176.256 
C 236.16 176.256 236.16 176.256 236.16 176.256 
C 236.16 176.256 236.16 176.256 236.16 176.256 
C 236.16 176.256 236.16 176.256 236.16 176.256 
C 236.16 176.256 236.16 176.256 236.16 176.256 
C 236.16 176.256 236.16 176.256 236.16 176.256 
C 236.16 176.256 236.16 176.256 236.16 176.256 
C 236.16 176.256 236.16 176.256 236.16 176.256 
z
"/>
  </clipPath>
 </defs>
</svg>
