<svg class="main-svg" xmlns="http://www.w3.org/2000/svg" xmlns:xlink="http://www.w3.org/1999/xlink" width="380" height="410" style="" viewBox="0 0 380 410"><rect x="0" y="0" width="380" height="410" style="fill: rgb(255, 255, 255); fill-opacity: 1;"/><defs id="defs-fff459"><g class="clips"><clipPath id="clipfff459polar-for-traces"><path d="M146,0A146,146 0,1,0 -146,-1.7879843267551357e-14A146,146 0,1,0 146,3.5759686535102714e-14Z" transform="translate(146,146)"/></clipPath></g><g class="gradients"/><g class="patterns"/></defs><g class="bglayer"/><g class="layer-below"><g class="imagelayer"/><g class="shapelayer"/></g><g class="cartesianlayer"/><g class="polarlayer"><g class="polar"><g class="polarsublayer draglayer"/><g class="polarsublayer plotbg"><path d="M146,0A146,146 0,1,0 -146,-1.7879843267551357e-14A146,146 0,1,0 146,3.5759686535102714e-14Z" transform="translate(190,206)" style="fill: rgb(255, 255, 255); fill-opacity: 1;"/></g><g class="polarsublayer backplot"><g class="maplayer"/></g><g class="polarsublayer angular-grid" style="fill: none;"><path class="angularaxisgrid" d="M190,206L190,60" style="stroke: rgb(180, 180, 180); stroke-opacity: 1; stroke-width: 1px;"/><path class="angularaxisgrid" d="M190,206L316.439708952528,133" style="stroke: rgb(180, 180, 180); stroke-opacity: 1; stroke-width: 1px;"/><path class="angularaxisgrid" d="M190,206L316.43970895252806,279" style="stroke: rgb(180, 180, 180); stroke-opacity: 1; stroke-width: 1px;"/><path class="angularaxisgrid" d="M190,206L190,352" style="stroke: rgb(180, 180, 180); stroke-opacity: 1; stroke-width: 1px;"/><path class="angularaxisgrid" d="M190,206L63.56029104747198,279.00000000000006" style="stroke: rgb(180, 180, 180); stroke-opacity: 1; stroke-width: 1px;"/><path class="angularaxisgrid" d="M190,206L63.560291047471964,133" style="stroke: rgb(180, 180, 180); stroke-opacity: 1; stroke-width: 1px;"/></g><g class="polarsublayer radial-grid" transform="translate(190,206)" style="fill: none;"><path class="xgrid" d="M36.5,0A36.5,36.5 0,1,0 -36.5,-4.469960816887839e-15A36.5,36.5 0,1,0 36.5,8.939921633775678e-15Z" style="stroke: rgb(180, 180, 180); stroke-opacity: 1; stroke-width: 1px;"/><path class="xgrid" d="M73,0A73,73 0,1,0 -73,-8.939921633775678e-15A73,73 0,1,0 73,1.7879843267551357e-14Z" style="stroke: rgb(180, 180, 180); stroke-opacity: 1; stroke-width: 1px;"/><path class="xgrid" d="M109.5,0A109.5,109.5 0,1,0 -109.5,-1.3409882450663518e-14A109.5,109.5 0,1,0 109.5,2.6819764901327035e-14Z" style="stroke: rgb(180, 180, 180); stroke-opacity: 1; stroke-width: 1px;"/></g><g class="polarsublayer frontplot" transform="translate(44,60)" clip-path="url(#clipfff459polar-for-traces)"><g class="barlayer"/><g class="scatterlayer"><g class="trace scatter trace2aa297" style="stroke-miterlimit: 2; opacity: 1;"><g class="fills"/><g class="errorbars"/><g class="lines"><path class="js-line" d="M146,45.91L241.03,91.13L247.09,204.36L146,250.91L54.46,198.85L61.6,97.27L146,45.91" style="vector-effect: none; fill: none; stroke: rgb(99, 110, 250); stroke-opacity: 1; stroke-width: 2px; opacity: 1;"/></g><g class="points"/><g class="text"/></g><g class="trace scatter trace694719" style="stroke-miterlimit: 2; opacity: 1;"><g class="fills"/><g class="errorbars"/><g class="lines"><path class="js-line" d="M146,57.29L252.93,84.26L249.69,205.87L146,252.09L58.59,196.47L60.45,96.61L146,57.29" style="vector-effect: none; fill: none; stroke: rgb(239, 85, 59); stroke-opacity: 1; stroke-dasharray: 3px, 3px; stroke-width: 2px; opacity: 1;"/></g><g class="points"/><g class="text"/></g><g class="trace scatter tracec47fb7" style="stroke-miterlimit: 2; opacity: 1;"><g class="fills"/><g class="errorbars"/><g class="lines"><path class="js-line" d="M146,69.76L265.38,77.07L237.74,198.97L146,253.05L70.76,189.44L56.02,94.05L146,69.76" style="vector-effect: none; fill: none; stroke: rgb(0, 204, 150); stroke-opacity: 1; stroke-dasharray: 9px, 9px; stroke-width: 2px; opacity: 1;"/></g><g class="points"/><g class="text"/></g><g class="trace scatter trace3cef2a" style="stroke-miterlimit: 2; opacity: 1;"><g class="fills"/><g class="errorbars"/><g class="lines"><path class="js-line" d="M146,32.14L242.88,90.07L207.03,181.24L146,258.86L73.42,187.9L49.21,90.12L146,32.14" style="vector-effect: none; fill: none; stroke: rgb(171, 99, 250); stroke-opacity: 1; stroke-dasharray: 15px, 15px; stroke-width: 2px; opacity: 1;"/></g><g class="points"/><g class="text"/></g><g class="trace scatter trace64f154" style="stroke-miterlimit: 2; opacity: 1;"><g class="fills"/><g class="errorbars"/><g class="lines"><path class="js-line" d="M146,20.79L233.49,95.49L196.44,175.12L146,259.12L76.79,185.96L48.92,89.95L146,20.79" style="vector-effect: none; fill: none; stroke: rgb(255, 161, 90); stroke-opacity: 1; stroke-dasharray: 9px, 3px, 3px, 3px; stroke-width: 2px; opacity: 1;"/></g><g class="points"/><g class="text"/></g></g></g><g class="polarsublayer angular-line"><path d="M146,0A146,146 0,1,0 -146,-1.7879843267551357e-14A146,146 0,1,0 146,3.5759686535102714e-14Z" transform="translate(190,206)" stroke-width="1" style="fill: none; stroke: rgb(68, 68, 68); stroke-opacity: 1;"/></g><g class="polarsublayer radial-line"><line x1="0" y1="0" x2="146" y2="0" transform="translate(190,206)" stroke-width="1" style="fill: none; stroke: rgb(68, 68, 68); stroke-opacity: 1;"/></g><g class="polarsublayer angular-axis"><path class="angularaxistick ticks" d="M0.5,0h5" transform="translate(190,60)rotate(-90)" style="stroke: rgb(68, 68, 68); stroke-opacity: 1; stroke-width: 1px;"/><path class="angularaxistick ticks" d="M0.5,0h5" transform="translate(316.439708952528,133)rotate(-30.000000000000004)" style="stroke: rgb(68, 68, 68); stroke-opacity: 1; stroke-width: 1px;"/><path class="angularaxistick ticks" d="M0.5,0h5" transform="translate(316.43970895252806,279)rotate(29.999999999999993)" style="stroke: rgb(68, 68, 68); stroke-opacity: 1; stroke-width: 1px;"/><path class="angularaxistick ticks" d="M0.5,0h5" transform="translate(190,352)rotate(90)" style="stroke: rgb(68, 68, 68); stroke-opacity: 1; stroke-width: 1px;"/><path class="angularaxistick ticks" d="M0.5,0h5" transform="translate(63.56029104747198,279.00000000000006)rotate(150)" style="stroke: rgb(68, 68, 68); stroke-opacity: 1; stroke-width: 1px;"/><path class="angularaxistick ticks" d="M0.5,0h5" transform="translate(63.560291047471964,133)rotate(210)" style="stroke: rgb(68, 68, 68); stroke-opacity: 1; stroke-width: 1px;"/><g class="angularaxistick"><text text-anchor="middle" x="4.837354856632045e-16" y="-10.3" transform="translate(190,60)" style="font-family: 'Open Sans', verdana, arial, sans-serif; font-size: 12px; fill: rgb(68, 68, 68); fill-opacity: 1; white-space: pre; opacity: 1;">TPR</text></g><g class="angularaxistick"><text text-anchor="start" x="6.841600689897065" y="-1.5126933041053587" transform="translate(316.439708952528,133)" style="font-family: 'Open Sans', verdana, arial, sans-serif; font-size: 12px; fill: rgb(68, 68, 68); fill-opacity: 1; white-space: pre; opacity: 1;">TNR</text></g><g class="angularaxistick"><text text-anchor="start" x="6.841600689897066" y="13.587306695894638" transform="translate(316.43970895252806,279)" style="font-family: 'Open Sans', verdana, arial, sans-serif; font-size: 12px; fill: rgb(68, 68, 68); fill-opacity: 1; white-space: pre; opacity: 1;">PPV</text></g><g class="angularaxistick"><text text-anchor="middle" x="4.837354856632045e-16" y="19.9" transform="translate(190,352)" style="font-family: 'Open Sans', verdana, arial, sans-serif; font-size: 12px; fill: rgb(68, 68, 68); fill-opacity: 1; white-space: pre; opacity: 1;">BAC</text></g><g class="angularaxistick"><text text-anchor="end" x="-6.8416006898970645" y="13.587306695894647" transform="translate(63.56029104747198,279.00000000000006)" style="font-family: 'Open Sans', verdana, arial, sans-serif; font-size: 12px; fill: rgb(68, 68, 68); fill-opacity: 1; white-space: pre; opacity: 1;">F1</text></g><g class="angularaxistick"><text text-anchor="end" x="-6.841600689897065" y="-1.5126933041053596" transform="translate(63.560291047471964,133)" style="font-family: 'Open Sans', verdana, arial, sans-serif; font-size: 12px; fill: rgb(68, 68, 68); fill-opacity: 1; white-space: pre; opacity: 1;">Gmean</text></g></g><g class="polarsublayer radial-axis" transform="translate(190,206)"><path class="xtick ticks" d="M0,0.5v5" transform="" style="stroke: rgb(68, 68, 68); stroke-opacity: 1; stroke-width: 1px;"/><path class="xtick ticks" d="M0,0.5v5" transform="translate(36.5,0)" style="stroke: rgb(68, 68, 68); stroke-opacity: 1; stroke-width: 1px;"/><path class="xtick ticks" d="M0,0.5v5" transform="translate(73,0)" style="stroke: rgb(68, 68, 68); stroke-opacity: 1; stroke-width: 1px;"/><path class="xtick ticks" d="M0,0.5v5" transform="translate(109.5,0)" style="stroke: rgb(68, 68, 68); stroke-opacity: 1; stroke-width: 1px;"/><path class="xtick ticks" d="M0,0.5v5" transform="translate(146,0)" style="stroke: rgb(68, 68, 68); stroke-opacity: 1; stroke-width: 1px;"/><g class="xtick"><text text-anchor="middle" x="0" y="16.3" transform="" style="font-family: 'Open Sans', verdana, arial, sans-serif; font-size: 9px; fill: rgb(68, 68, 68); fill-opacity: 1; white-space: pre; opacity: 1;">0.7</text></g><g class="xtick"><text text-anchor="middle" x="0" y="16.3" transform="translate(36.5,0)" style="font-family: 'Open Sans', verdana, arial, sans-serif; font-size: 9px; fill: rgb(68, 68, 68); fill-opacity: 1; white-space: pre; opacity: 1;">0.75</text></g><g class="xtick"><text text-anchor="middle" x="0" y="16.3" transform="translate(73,0)" style="font-family: 'Open Sans', verdana, arial, sans-serif; font-size: 9px; fill: rgb(68, 68, 68); fill-opacity: 1; white-space: pre; opacity: 1;">0.8</text></g><g class="xtick"><text text-anchor="middle" x="0" y="16.3" transform="translate(109.5,0)" style="font-family: 'Open Sans', verdana, arial, sans-serif; font-size: 9px; fill: rgb(68, 68, 68); fill-opacity: 1; white-space: pre; opacity: 1;">0.85</text></g><g class="xtick"><text text-anchor="middle" x="0" y="16.3" transform="translate(146,0)" style="font-family: 'Open Sans', verdana, arial, sans-serif; font-size: 9px; fill: rgb(68, 68, 68); fill-opacity: 1; white-space: pre; opacity: 1;">0.9</text></g></g></g></g><g class="smithlayer"/><g class="ternarylayer"/><g class="geolayer"/><g class="funnelarealayer"/><g class="pielayer"/><g class="iciclelayer"/><g class="treemaplayer"/><g class="sunburstlayer"/><g class="glimages"/><defs id="topdefs-fff459"><g class="clips"/><clipPath id="legendfff459"><rect width="357" height="29" x="0" y="0"/></clipPath></defs><g class="layer-above"><g class="imagelayer"/><g class="shapelayer"/></g><g class="infolayer"><g class="legend" pointer-events="all" transform="translate(11.5,381)"><rect class="bg" shape-rendering="crispEdges" width="357" height="29" x="0" y="0" style="stroke: rgb(68, 68, 68); stroke-opacity: 1; fill: rgb(255, 255, 255); fill-opacity: 1; stroke-width: 0px;"/><g class="scrollbox" transform="" clip-path="url(#legendfff459)"><g class="groups" transform=""><g class="traces" transform="translate(0,14.5)" style="opacity: 1;"><text class="legendtext" text-anchor="start" x="40" y="4.680000000000001" style="font-family: 'Open Sans', verdana, arial, sans-serif; font-size: 12px; fill: rgb(68, 68, 68); fill-opacity: 1; white-space: pre;">ONS</text><g class="layers" style="opacity: 1;"><g class="legendfill"/><g class="legendlines"><path class="js-line" d="M5,0h30" style="fill: none; stroke: rgb(99, 110, 250); stroke-opacity: 1; stroke-width: 2px;"/></g><g class="legendsymbols"><g class="legendpoints"/></g></g><rect class="legendtoggle" x="0" y="-9.5" width="69.125" height="19" style="fill: rgb(0, 0, 0); fill-opacity: 0;"/></g></g><g class="groups" transform="translate(71.625,0)"><g class="traces" transform="translate(0,14.5)" style="opacity: 1;"><text class="legendtext" text-anchor="start" x="40" y="4.680000000000001" style="font-family: 'Open Sans', verdana, arial, sans-serif; font-size: 12px; fill: rgb(68, 68, 68); fill-opacity: 1; white-space: pre;">OBo</text><g class="layers" style="opacity: 1;"><g class="legendfill"/><g class="legendlines"><path class="js-line" d="M5,0h30" style="fill: none; stroke: rgb(239, 85, 59); stroke-opacity: 1; stroke-dasharray: 3px, 3px; stroke-width: 2px;"/></g><g class="legendsymbols"><g class="legendpoints"/></g></g><rect class="legendtoggle" x="0" y="-9.5" width="67.46875" height="19" style="fill: rgb(0, 0, 0); fill-opacity: 0;"/></g></g><g class="groups" transform="translate(141.59375,0)"><g class="traces" transform="translate(0,14.5)" style="opacity: 1;"><text class="legendtext" text-anchor="start" x="40" y="4.680000000000001" style="font-family: 'Open Sans', verdana, arial, sans-serif; font-size: 12px; fill: rgb(68, 68, 68); fill-opacity: 1; white-space: pre;">OBa</text><g class="layers" style="opacity: 1;"><g class="legendfill"/><g class="legendlines"><path class="js-line" d="M5,0h30" style="fill: none; stroke: rgb(0, 204, 150); stroke-opacity: 1; stroke-dasharray: 9px, 9px; stroke-width: 2px;"/></g><g class="legendsymbols"><g class="legendpoints"/></g></g><rect class="legendtoggle" x="0" y="-9.5" width="67.390625" height="19" style="fill: rgb(0, 0, 0); fill-opacity: 0;"/></g></g><g class="groups" transform="translate(211.484375,0)"><g class="traces" transform="translate(0,14.5)" style="opacity: 1;"><text class="legendtext" text-anchor="start" x="40" y="4.680000000000001" style="font-family: 'Open Sans', verdana, arial, sans-serif; font-size: 12px; fill: rgb(68, 68, 68); fill-opacity: 1; white-space: pre;">OOB</text><g class="layers" style="opacity: 1;"><g class="legendfill"/><g class="legendlines"><path class="js-line" d="M5,0h30" style="fill: none; stroke: rgb(171, 99, 250); stroke-opacity: 1; stroke-dasharray: 15px, 15px; stroke-width: 2px;"/></g><g class="legendsymbols"><g class="legendpoints"/></g></g><rect class="legendtoggle" x="0" y="-9.5" width="70.390625" height="19" style="fill: rgb(0, 0, 0); fill-opacity: 0;"/></g></g><g class="groups" transform="translate(284.375,0)"><g class="traces" transform="translate(0,14.5)" style="opacity: 1;"><text class="legendtext" text-anchor="start" x="40" y="4.680000000000001" style="font-family: 'Open Sans', verdana, arial, sans-serif; font-size: 12px; fill: rgb(68, 68, 68); fill-opacity: 1; white-space: pre;">UOB</text><g class="layers" style="opacity: 1;"><g class="legendfill"/><g class="legendlines"><path class="js-line" d="M5,0h30" style="fill: none; stroke: rgb(255, 161, 90); stroke-opacity: 1; stroke-dasharray: 9px, 3px, 3px, 3px; stroke-width: 2px;"/></g><g class="legendsymbols"><g class="legendpoints"/></g></g><rect class="legendtoggle" x="0" y="-9.5" width="69.734375" height="19" style="fill: rgb(0, 0, 0); fill-opacity: 0;"/></g></g></g><rect class="scrollbar" rx="20" ry="3" width="0" height="0" x="0" y="0" style="fill: rgb(128, 139, 164); fill-opacity: 1;"/></g><g class="g-gtitle"><text class="gtitle" x="190" y="30" text-anchor="middle" dy="0em" style="font-family: 'Open Sans', verdana, arial, sans-serif; font-size: 17px; fill: rgb(68, 68, 68); opacity: 1; font-weight: normal; white-space: pre;">GaussianNB / CDI2</text></g><g class="g-polartitle"/></g></svg>